<?xml version="1.0" encoding="utf-8"?>
<!-- Generator: Adobe Illustrator 23.0.1, SVG Export Plug-In . SVG Version: 6.00 Build 0)  -->
<svg version="1.1" id="Layer_1" xmlns="http://www.w3.org/2000/svg" x="0px" y="0px"
     viewBox="0 0 257 80" style="enable-background:new 0 0 257 80;" xml:space="preserve">
<style type="text/css">
	.st0{fill:#58595B;}
	.st1{fill:#A7A9AC;}
	.st2{fill-rule:evenodd;clip-rule:evenodd;fill:#FFFFFF;}
	.st3{fill-rule:evenodd;clip-rule:evenodd;fill:#58595B;}
	.st4{fill:#F58220;}
</style>
    <path class="st0" d="M113.27,39.02h-1.96V15.19v-0.45c0-0.24-0.02-0.51-0.07-0.79c-0.05-0.28-0.14-0.55-0.29-0.79
	c-0.15-0.24-0.35-0.45-0.62-0.63c-0.26-0.18-0.62-0.26-1.08-0.26c-0.44,0-0.78,0.09-1.04,0.26c-0.26,0.18-0.45,0.4-0.58,0.67
	c-0.13,0.27-0.22,0.55-0.26,0.83c-0.04,0.28-0.06,0.55-0.06,0.79v0.37v23.83h-1.99V15.19v-0.45c0-0.24-0.02-0.51-0.07-0.79
	c-0.05-0.28-0.14-0.55-0.29-0.79c-0.15-0.24-0.35-0.45-0.62-0.63c-0.26-0.18-0.62-0.26-1.08-0.26c-0.42,0-0.76,0.09-1.02,0.26
	c-0.26,0.18-0.46,0.4-0.6,0.67c-0.14,0.27-0.23,0.55-0.27,0.83c-0.04,0.28-0.06,0.55-0.06,0.79v0.37v23.83h-1.99V15.19v-1.06
	c0-0.3,0.03-0.73,0.09-1.28c0.06-0.56,0.23-1.1,0.5-1.65c0.27-0.54,0.67-1.01,1.2-1.4c0.53-0.39,1.26-0.59,2.2-0.59
	c0.75,0,1.36,0.13,1.82,0.39c0.47,0.26,0.85,0.58,1.15,0.96c0.31-0.38,0.7-0.7,1.17-0.96c0.47-0.26,1.08-0.39,1.82-0.39
	c0.94,0,1.67,0.2,2.2,0.59c0.53,0.39,0.93,0.86,1.19,1.4c0.27,0.54,0.43,1.09,0.49,1.65c0.06,0.56,0.09,0.98,0.09,1.28v0.49V39.02z"
    />
    <path class="st0" d="M121.73,39.02h-4.58c-0.45,0-0.84-0.14-1.17-0.43c-0.33-0.28-0.6-0.65-0.82-1.1c-0.22-0.45-0.38-0.94-0.49-1.48
	c-0.11-0.54-0.16-1.07-0.16-1.59v-1.06V15.19v-1.06c0-0.52,0.05-1.04,0.16-1.59c0.11-0.54,0.27-1.04,0.49-1.48
	c0.22-0.45,0.49-0.81,0.82-1.1c0.33-0.28,0.72-0.43,1.17-0.43h4.58v2.85h-2.52h-1.4c-0.41,0-0.73,0.24-0.97,0.71
	c-0.24,0.47-0.36,1.05-0.36,1.73v0.37v7.48h4.23v3.21h-4.23v7.48v0.41c0,0.65,0.12,1.21,0.36,1.69c0.24,0.47,0.57,0.71,0.97,0.71
	h1.4h2.52V39.02z"/>
    <path class="st0" d="M130.91,39.02h-1.99V15.19v-0.45c0-0.24-0.02-0.51-0.07-0.79c-0.05-0.28-0.14-0.55-0.28-0.79
	c-0.14-0.24-0.35-0.45-0.62-0.63c-0.27-0.18-0.63-0.26-1.09-0.26c-0.42,0-0.76,0.09-1.02,0.26c-0.26,0.18-0.46,0.4-0.6,0.67
	s-0.23,0.55-0.27,0.83c-0.04,0.28-0.06,0.55-0.06,0.79v0.37v23.83h-1.96V15.19v-1.06c0-0.3,0.03-0.73,0.09-1.28
	c0.06-0.56,0.23-1.1,0.49-1.65c0.26-0.54,0.66-1.01,1.19-1.4c0.53-0.39,1.26-0.59,2.2-0.59c0.93,0,1.67,0.2,2.2,0.59
	c0.53,0.39,0.93,0.86,1.19,1.4c0.27,0.54,0.43,1.09,0.49,1.65c0.06,0.56,0.09,0.98,0.09,1.28v0.49V39.02z"/>
    <path class="st0" d="M139.36,39.02h-4.58c-0.45,0-0.84-0.14-1.17-0.43c-0.33-0.28-0.6-0.65-0.82-1.1c-0.22-0.45-0.38-0.94-0.49-1.48
	c-0.11-0.54-0.16-1.07-0.16-1.59v-1.06V15.19v-1.06c0-0.52,0.05-1.04,0.16-1.59c0.11-0.54,0.27-1.04,0.49-1.48
	c0.22-0.45,0.49-0.81,0.82-1.1c0.33-0.28,0.72-0.43,1.17-0.43h4.58v2.85h-2.52h-1.4c-0.41,0-0.73,0.24-0.97,0.71
	c-0.24,0.47-0.36,1.05-0.36,1.73v0.37v7.48h4.23v3.21h-4.23v7.48v0.41c0,0.65,0.12,1.21,0.36,1.69c0.24,0.47,0.56,0.71,0.97,0.71
	h1.4h2.52V39.02z"/>
    <path class="st0" d="M149.5,36.13v2.89h-7.5c-0.2,0-0.41-0.09-0.61-0.26c-0.2-0.18-0.37-0.41-0.51-0.71
	c-0.14-0.3-0.23-0.66-0.27-1.08c-0.04-0.42,0-0.89,0.13-1.4c0.03-0.11,0.15-0.52,0.35-1.22c0.2-0.7,0.46-1.59,0.77-2.66
	c0.31-1.07,0.66-2.28,1.05-3.62c0.39-1.34,0.79-2.7,1.19-4.07c0.41-1.37,0.8-2.71,1.18-4.03c0.38-1.31,0.72-2.49,1.03-3.52
	c0.3-1.03,0.55-1.86,0.72-2.48c0.18-0.62,0.27-0.94,0.27-0.94c0.03-0.14,0.03-0.27,0-0.41c-0.03-0.14-0.11-0.2-0.23-0.2h-6.24V9.54
	h7.25c0.2,0,0.4,0.09,0.61,0.26c0.2,0.18,0.37,0.41,0.51,0.71c0.14,0.3,0.23,0.66,0.27,1.1c0.04,0.43,0,0.89-0.13,1.38
	c0,0.03-0.14,0.51-0.41,1.44c-0.27,0.94-0.62,2.12-1.04,3.56c-0.42,1.44-0.88,3.02-1.39,4.76c-0.51,1.74-1.01,3.43-1.5,5.08
	c-0.49,1.65-0.94,3.17-1.33,4.55c-0.4,1.38-0.7,2.43-0.9,3.13c-0.03,0.14-0.03,0.27,0.01,0.41c0.04,0.14,0.11,0.2,0.22,0.2H149.5z"
    />
    <path class="st0" d="M157.95,39.02h-4.58c-0.45,0-0.84-0.14-1.17-0.43c-0.33-0.28-0.6-0.65-0.82-1.1c-0.22-0.45-0.38-0.94-0.49-1.48
	c-0.11-0.54-0.16-1.07-0.16-1.59v-1.06V15.19v-1.06c0-0.52,0.05-1.04,0.16-1.59c0.11-0.54,0.27-1.04,0.49-1.48
	c0.22-0.45,0.49-0.81,0.82-1.1c0.33-0.28,0.72-0.43,1.17-0.43h4.58v2.85h-2.52h-1.4c-0.4,0-0.73,0.24-0.97,0.71
	c-0.24,0.47-0.36,1.05-0.36,1.73v0.37v7.48h4.23v3.21h-4.23v7.48v0.41c0,0.65,0.12,1.21,0.36,1.69c0.24,0.47,0.57,0.71,0.97,0.71
	h1.4h2.52V39.02z"/>
    <path class="st0" d="M167.13,34.39c0,0.33-0.03,0.76-0.09,1.3c-0.06,0.54-0.23,1.08-0.49,1.63c-0.26,0.54-0.66,1.01-1.19,1.4
	s-1.26,0.59-2.2,0.59c-0.94,0-1.67-0.2-2.2-0.59c-0.53-0.39-0.93-0.86-1.19-1.4c-0.26-0.54-0.43-1.09-0.49-1.65
	c-0.06-0.56-0.09-0.98-0.09-1.28v-1.02h1.96v0.37c0,0.24,0.02,0.51,0.06,0.79c0.04,0.28,0.13,0.56,0.27,0.81
	c0.14,0.26,0.34,0.47,0.6,0.65c0.26,0.18,0.6,0.26,1.02,0.26c0.45,0,0.81-0.09,1.08-0.26c0.26-0.18,0.47-0.39,0.62-0.63
	c0.15-0.24,0.25-0.51,0.29-0.79c0.05-0.28,0.07-0.54,0.07-0.75v-0.45v-3.58v-0.41c0-0.33-0.05-0.71-0.16-1.16
	c-0.11-0.45-0.37-0.79-0.77-1.04c-0.09-0.05-0.21-0.12-0.35-0.2c-0.14-0.08-0.26-0.16-0.37-0.24l-1.75-1.02
	c-0.06-0.05-0.11-0.08-0.14-0.08c-0.89-0.46-1.51-1.12-1.87-1.99c-0.36-0.87-0.54-1.79-0.54-2.76v-0.24v-0.73v-4.96V14.1
	c0-0.3,0.03-0.73,0.09-1.28c0.06-0.56,0.23-1.1,0.49-1.65c0.27-0.54,0.66-1.01,1.19-1.4c0.53-0.39,1.26-0.59,2.2-0.59
	c0.94,0,1.67,0.2,2.2,0.59c0.53,0.39,0.93,0.86,1.19,1.4c0.26,0.54,0.43,1.09,0.49,1.65c0.06,0.56,0.09,0.98,0.09,1.28v1.06h-1.99
	v-0.45c0-0.24-0.02-0.51-0.07-0.79c-0.05-0.28-0.14-0.55-0.29-0.79c-0.15-0.24-0.35-0.45-0.62-0.63c-0.26-0.18-0.62-0.26-1.08-0.26
	c-0.42,0-0.76,0.09-1.02,0.26c-0.26,0.18-0.46,0.4-0.6,0.67c-0.14,0.27-0.23,0.55-0.27,0.83c-0.04,0.28-0.06,0.55-0.06,0.79v0.37
	v4.76v0.37c0,0.35,0.06,0.75,0.18,1.18c0.12,0.43,0.38,0.77,0.78,1.02c0.06,0.05,0.14,0.11,0.23,0.16c0.09,0.05,0.19,0.11,0.28,0.16
	c0.28,0.16,0.6,0.35,0.97,0.57c0.37,0.22,0.71,0.43,1.02,0.65c0.31,0.14,0.58,0.3,0.79,0.49c0.28,0.16,0.53,0.4,0.74,0.71
	c0.21,0.31,0.39,0.67,0.55,1.08c0.3,0.76,0.44,1.6,0.44,2.52v0.49v4.07V34.39z"/>
    <path class="st0" d="M201,39.02h-1.96V15.19v-0.45c0-0.24-0.02-0.51-0.07-0.79c-0.05-0.28-0.14-0.55-0.29-0.79
	c-0.15-0.24-0.35-0.45-0.62-0.63c-0.26-0.18-0.62-0.26-1.08-0.26c-0.44,0-0.78,0.09-1.04,0.26c-0.26,0.18-0.45,0.4-0.58,0.67
	c-0.13,0.27-0.22,0.55-0.26,0.83c-0.04,0.28-0.06,0.55-0.06,0.79v0.37v23.83h-1.99V15.19v-0.45c0-0.24-0.02-0.51-0.07-0.79
	c-0.05-0.28-0.14-0.55-0.29-0.79c-0.15-0.24-0.35-0.45-0.62-0.63c-0.26-0.18-0.62-0.26-1.08-0.26c-0.42,0-0.76,0.09-1.02,0.26
	c-0.26,0.18-0.46,0.4-0.6,0.67c-0.14,0.27-0.23,0.55-0.27,0.83c-0.04,0.28-0.06,0.55-0.06,0.79v0.37v23.83h-1.99V15.19v-1.06
	c0-0.3,0.03-0.73,0.09-1.28c0.06-0.56,0.23-1.1,0.5-1.65c0.27-0.54,0.67-1.01,1.2-1.4c0.53-0.39,1.26-0.59,2.2-0.59
	c0.75,0,1.36,0.13,1.82,0.39c0.47,0.26,0.85,0.58,1.15,0.96c0.31-0.38,0.7-0.7,1.17-0.96c0.47-0.26,1.08-0.39,1.82-0.39
	c0.93,0,1.67,0.2,2.2,0.59c0.53,0.39,0.93,0.86,1.19,1.4c0.27,0.54,0.43,1.09,0.49,1.65c0.06,0.56,0.09,0.98,0.09,1.28v0.49V39.02z"
    />
    <path class="st0" d="M208.19,33.37h0.02V15.15h-0.02v-0.45c0-0.24-0.02-0.51-0.07-0.79c-0.05-0.28-0.14-0.55-0.28-0.79
	c-0.14-0.24-0.35-0.45-0.62-0.63c-0.27-0.18-0.63-0.26-1.09-0.26c-0.42,0-0.76,0.09-1.02,0.26c-0.26,0.18-0.46,0.4-0.6,0.67
	c-0.14,0.27-0.23,0.55-0.27,0.83c-0.04,0.28-0.06,0.55-0.06,0.79v0.37v18.22v0.37c0,0.24,0.02,0.51,0.06,0.79
	c0.04,0.28,0.13,0.56,0.27,0.81c0.14,0.26,0.34,0.47,0.6,0.65c0.26,0.18,0.6,0.26,1.02,0.26c0.45,0,0.81-0.09,1.09-0.26
	c0.27-0.18,0.48-0.39,0.62-0.63c0.14-0.24,0.23-0.51,0.28-0.79c0.05-0.28,0.07-0.54,0.07-0.75V33.37z M210.18,33.98v0.41
	c0,0.33-0.03,0.76-0.09,1.3c-0.06,0.54-0.23,1.08-0.49,1.63c-0.26,0.54-0.66,1.01-1.19,1.4c-0.53,0.39-1.26,0.59-2.2,0.59
	c-0.94,0-1.67-0.2-2.2-0.59c-0.53-0.39-0.93-0.86-1.19-1.4c-0.26-0.54-0.43-1.09-0.49-1.65c-0.06-0.56-0.09-0.98-0.09-1.28v-1.02
	V15.15V14.1c0-0.3,0.03-0.73,0.09-1.28c0.06-0.56,0.23-1.1,0.49-1.65c0.27-0.54,0.66-1.01,1.19-1.4c0.53-0.39,1.26-0.59,2.2-0.59
	c0.94,0,1.67,0.2,2.2,0.59c0.53,0.39,0.93,0.86,1.19,1.4c0.27,0.54,0.43,1.09,0.49,1.65c0.06,0.56,0.09,0.98,0.09,1.28v0.41V33.98z"
    />
    <path class="st0" d="M213.39,24.38c0.14-0.08,0.32-0.19,0.53-0.33c0.21-0.14,0.43-0.27,0.67-0.41c0.23-0.14,0.47-0.28,0.7-0.43
	c0.23-0.15,0.44-0.28,0.63-0.39c0.09-0.05,0.19-0.11,0.28-0.16c0.09-0.05,0.18-0.11,0.26-0.16c0.39-0.24,0.64-0.58,0.76-1.02
	c0.12-0.43,0.18-0.81,0.18-1.14v-5.37v-0.24c0-0.24-0.02-0.51-0.07-0.79c-0.05-0.28-0.14-0.55-0.29-0.79
	c-0.15-0.24-0.35-0.45-0.62-0.63c-0.26-0.18-0.62-0.26-1.08-0.26c-0.42,0-0.76,0.09-1.02,0.26c-0.26,0.18-0.46,0.4-0.6,0.67
	c-0.14,0.27-0.23,0.55-0.27,0.83c-0.04,0.28-0.06,0.55-0.06,0.79v0.37V24.38z M218.21,39.02l-2.52-12.61
	c-0.17,0.11-0.33,0.21-0.47,0.31c-0.14,0.09-0.27,0.17-0.37,0.22l-0.35,0.2c-0.19,0.11-0.37,0.24-0.54,0.41
	c-0.14,0.14-0.26,0.33-0.37,0.59c-0.11,0.26-0.17,0.58-0.19,0.96v9.92h-1.99V14.99v-0.85c0-0.3,0.03-0.73,0.09-1.28
	c0.06-0.56,0.23-1.1,0.49-1.65c0.27-0.54,0.66-1.01,1.19-1.4c0.53-0.39,1.26-0.59,2.2-0.59c0.93,0,1.67,0.2,2.2,0.59
	c0.53,0.39,0.93,0.86,1.19,1.4c0.26,0.54,0.43,1.09,0.49,1.65c0.06,0.56,0.09,0.98,0.09,1.28v1.06v4.76v0.98
	c0,0.87-0.14,1.69-0.41,2.48c-0.27,0.79-0.74,1.41-1.39,1.87l2.76,13.74H218.21z"/>
    <path class="st0" d="M227.88,39.02h-4.58c-0.45,0-0.84-0.14-1.17-0.43c-0.33-0.28-0.6-0.65-0.82-1.1c-0.22-0.45-0.38-0.94-0.49-1.48
	c-0.11-0.54-0.16-1.07-0.16-1.59v-1.06V15.19v-1.06c0-0.52,0.05-1.04,0.16-1.59c0.11-0.54,0.27-1.04,0.49-1.48
	c0.22-0.45,0.49-0.81,0.82-1.1c0.33-0.28,0.72-0.43,1.17-0.43h4.58v2.85h-2.52h-1.4c-0.41,0-0.73,0.24-0.97,0.71
	c-0.24,0.47-0.36,1.05-0.36,1.73v0.37v7.48h4.23v3.21h-4.23v7.48v0.41c0,0.65,0.12,1.21,0.36,1.69c0.24,0.47,0.56,0.71,0.97,0.71
	h1.4h2.52V39.02z"/>
    <rect x="229.11" y="9.54" class="st0" width="1.96" height="29.48"/>
    <path class="st0" d="M234.29,24.38c0.14-0.08,0.32-0.19,0.53-0.33c0.21-0.14,0.43-0.27,0.67-0.41c0.23-0.14,0.47-0.28,0.7-0.43
	c0.23-0.15,0.44-0.28,0.63-0.39c0.09-0.05,0.19-0.11,0.28-0.16c0.09-0.05,0.18-0.11,0.26-0.16c0.39-0.24,0.64-0.58,0.76-1.02
	c0.12-0.43,0.18-0.81,0.18-1.14v-5.37v-0.24c0-0.24-0.02-0.51-0.07-0.79c-0.05-0.28-0.14-0.55-0.29-0.79
	c-0.15-0.24-0.35-0.45-0.62-0.63c-0.26-0.18-0.62-0.26-1.08-0.26c-0.42,0-0.76,0.09-1.02,0.26c-0.26,0.18-0.46,0.4-0.6,0.67
	c-0.14,0.27-0.23,0.55-0.27,0.83c-0.04,0.28-0.06,0.55-0.06,0.79v0.37V24.38z M239.11,39.02l-2.52-12.61
	c-0.17,0.11-0.33,0.21-0.47,0.31c-0.14,0.09-0.27,0.17-0.37,0.22l-0.35,0.2c-0.19,0.11-0.37,0.24-0.54,0.41
	c-0.14,0.14-0.27,0.33-0.37,0.59c-0.11,0.26-0.17,0.58-0.19,0.96v9.92h-1.99V14.99v-0.85c0-0.3,0.03-0.73,0.09-1.28
	c0.06-0.56,0.23-1.1,0.49-1.65c0.27-0.54,0.66-1.01,1.19-1.4c0.53-0.39,1.26-0.59,2.2-0.59c0.94,0,1.67,0.2,2.2,0.59
	c0.53,0.39,0.93,0.86,1.19,1.4c0.27,0.54,0.43,1.09,0.49,1.65c0.06,0.56,0.09,0.98,0.09,1.28v1.06v4.76v0.98
	c0,0.87-0.14,1.69-0.41,2.48c-0.27,0.79-0.74,1.41-1.39,1.87l2.76,13.74H239.11z"/>
    <path class="st0" d="M243.52,24.38c0.14-0.08,0.37-0.22,0.7-0.43c0.33-0.2,0.66-0.41,0.99-0.61c0.34-0.2,0.64-0.39,0.91-0.55
	c0.27-0.16,0.42-0.26,0.46-0.28c0.41-0.24,0.66-0.58,0.77-1.02c0.11-0.43,0.16-0.83,0.16-1.18v-5.57c0-0.24-0.02-0.51-0.07-0.79
	c-0.05-0.28-0.14-0.55-0.29-0.79c-0.15-0.24-0.35-0.45-0.62-0.63c-0.27-0.18-0.62-0.26-1.08-0.26c-0.42,0-0.76,0.09-1.02,0.26
	c-0.26,0.18-0.46,0.4-0.6,0.67c-0.14,0.27-0.23,0.55-0.27,0.83c-0.04,0.28-0.06,0.55-0.06,0.79V24.38z M249.5,39.02h-1.99V25.4
	c-0.03,0.03-0.2,0.14-0.5,0.33c-0.3,0.19-0.64,0.39-0.99,0.61l-1.4,0.81c-0.19,0.08-0.37,0.22-0.54,0.41
	c-0.14,0.16-0.27,0.37-0.39,0.63c-0.12,0.26-0.18,0.59-0.18,1v0.04v9.8h-1.96V14.14c0-0.3,0.03-0.73,0.09-1.28
	c0.06-0.56,0.23-1.1,0.49-1.65c0.26-0.54,0.66-1.01,1.19-1.4c0.53-0.39,1.26-0.59,2.2-0.59c0.94,0,1.67,0.2,2.2,0.59
	c0.53,0.39,0.93,0.86,1.19,1.4c0.27,0.54,0.43,1.09,0.49,1.65c0.06,0.56,0.09,0.98,0.09,1.28V39.02z"/>
    <path class="st0" d="M102.07,53.52l-0.88,2.65h-1.62l2.84-8.5c0.12-0.37,0.34-0.67,0.66-0.9c0.32-0.23,0.67-0.34,1.07-0.34
	c0.39,0,0.74,0.11,1.06,0.34c0.32,0.23,0.54,0.53,0.66,0.9l2.83,8.5h-1.62l-0.88-2.65H102.07z M105.72,52.15l-1.33-3.99
	c-0.02-0.06-0.06-0.11-0.1-0.14c-0.04-0.03-0.1-0.04-0.16-0.04c-0.07,0-0.12,0.02-0.17,0.04c-0.05,0.03-0.08,0.08-0.1,0.14
	l-1.33,3.99H105.72z"/>
    <path class="st0" d="M117.02,51.35l-1.54,0.03v-0.37c0-0.13-0.03-0.2-0.09-0.23c-0.02-0.01-0.14-0.03-0.34-0.05
	c-0.25-0.02-0.67-0.03-1.26-0.03h-0.55c-0.78,0-1.27,0.02-1.45,0.05c-0.09,0.02-0.15,0.05-0.18,0.09c-0.04,0.06-0.06,0.16-0.06,0.32
	v0.35c0,0.17,0.01,0.29,0.04,0.33c0.03,0.05,0.1,0.08,0.22,0.09c0.24,0.02,0.72,0.03,1.43,0.03h0.55c1.29,0,2.13,0.11,2.51,0.32
	c0.31,0.18,0.52,0.42,0.62,0.72c0.06,0.2,0.1,0.52,0.1,0.96v0.18c0,0.45-0.05,0.8-0.15,1.04c-0.14,0.32-0.38,0.56-0.74,0.72
	c-0.35,0.16-1.13,0.24-2.34,0.24h-0.55c-1.21,0-1.99-0.08-2.34-0.24c-0.36-0.16-0.6-0.4-0.74-0.72c-0.11-0.24-0.16-0.59-0.16-1.04
	v-0.14l1.54-0.05v0.19c0,0.19,0.01,0.3,0.02,0.33c0.02,0.05,0.1,0.08,0.24,0.09c0.21,0.03,0.68,0.04,1.42,0.04h0.55
	c0.7,0,1.16-0.01,1.36-0.03c0.14-0.01,0.23-0.03,0.26-0.05c0.04-0.02,0.07-0.09,0.07-0.18v-0.69c0-0.11,0-0.2-0.02-0.26
	c-0.03-0.05-0.15-0.09-0.35-0.11c-0.26-0.02-0.7-0.03-1.32-0.03h-0.55c-1.21,0-1.99-0.08-2.34-0.24c-0.36-0.16-0.6-0.4-0.74-0.72
	c-0.11-0.24-0.16-0.59-0.16-1.04v-0.11c0-0.44,0.04-0.76,0.11-0.97c0.1-0.3,0.31-0.54,0.62-0.71c0.38-0.21,1.22-0.32,2.5-0.32h0.55
	c1.29,0,2.13,0.11,2.51,0.32c0.31,0.17,0.52,0.41,0.62,0.72c0.06,0.2,0.1,0.52,0.1,0.97V51.35z"/>
    <path class="st0" d="M125.95,51.35l-1.54,0.03v-0.37c0-0.13-0.03-0.2-0.09-0.23c-0.02-0.01-0.14-0.03-0.34-0.05
	c-0.25-0.02-0.67-0.03-1.26-0.03h-0.55c-0.78,0-1.27,0.02-1.45,0.05c-0.09,0.02-0.15,0.05-0.18,0.09c-0.04,0.06-0.06,0.16-0.06,0.32
	v0.35c0,0.17,0.01,0.29,0.04,0.33c0.03,0.05,0.1,0.08,0.22,0.09c0.24,0.02,0.72,0.03,1.43,0.03h0.55c1.29,0,2.13,0.11,2.51,0.32
	c0.31,0.18,0.52,0.42,0.62,0.72c0.06,0.2,0.1,0.52,0.1,0.96v0.18c0,0.45-0.05,0.8-0.15,1.04c-0.14,0.32-0.38,0.56-0.74,0.72
	c-0.35,0.16-1.13,0.24-2.34,0.24h-0.55c-1.21,0-1.99-0.08-2.34-0.24c-0.36-0.16-0.6-0.4-0.74-0.72c-0.11-0.24-0.16-0.59-0.16-1.04
	v-0.14l1.54-0.05v0.19c0,0.19,0.01,0.3,0.02,0.33c0.02,0.05,0.1,0.08,0.24,0.09c0.21,0.03,0.68,0.04,1.42,0.04h0.55
	c0.7,0,1.16-0.01,1.36-0.03c0.14-0.01,0.23-0.03,0.26-0.05c0.04-0.02,0.06-0.09,0.07-0.18v-0.69c0-0.11,0-0.2-0.02-0.26
	c-0.03-0.05-0.15-0.09-0.35-0.11c-0.26-0.02-0.7-0.03-1.32-0.03h-0.55c-1.21,0-1.99-0.08-2.34-0.24c-0.36-0.16-0.6-0.4-0.74-0.72
	c-0.11-0.24-0.16-0.59-0.16-1.04v-0.11c0-0.44,0.04-0.76,0.11-0.97c0.1-0.3,0.31-0.54,0.62-0.71c0.38-0.21,1.22-0.32,2.5-0.32h0.55
	c1.29,0,2.13,0.11,2.51,0.32c0.31,0.17,0.52,0.41,0.62,0.72c0.06,0.2,0.1,0.52,0.1,0.97V51.35z"/>
    <path class="st0" d="M133.33,52.06c-0.01-0.69-0.05-1.08-0.13-1.17c-0.11-0.12-0.63-0.18-1.56-0.18h-0.55
	c-0.93,0-1.45,0.06-1.56,0.18c-0.08,0.09-0.12,0.48-0.13,1.17H133.33z M127.87,51.9c0.01-0.98,0.19-1.65,0.52-2.03
	c0.24-0.27,0.57-0.46,1-0.56c0.39-0.09,0.96-0.14,1.71-0.14h0.55c0.75,0,1.31,0.04,1.69,0.14c0.43,0.1,0.76,0.28,1.01,0.55
	c0.23,0.26,0.38,0.59,0.45,1.01c0.05,0.3,0.08,0.81,0.08,1.53v0.88h-5.46c0.01,0.72,0.07,1.12,0.17,1.22
	c0.1,0.09,0.6,0.14,1.51,0.14h0.63c0.73,0,1.19-0.02,1.39-0.08c0.09-0.02,0.15-0.09,0.18-0.18l0.18-0.41l1.38,0.33l-0.18,0.58
	c-0.21,0.6-0.62,0.99-1.24,1.16c-0.34,0.09-0.93,0.14-1.79,0.14h-0.55c-0.72,0-1.23-0.03-1.54-0.08c-0.42-0.07-0.75-0.23-1.01-0.46
	c-0.43-0.39-0.65-1.12-0.68-2.19V51.9z"/>
    <path class="st0" d="M143.81,51.35l-1.54,0.03v-0.37c0-0.13-0.03-0.2-0.09-0.23c-0.02-0.01-0.14-0.03-0.34-0.05
	c-0.25-0.02-0.67-0.03-1.26-0.03h-0.55c-0.78,0-1.27,0.02-1.45,0.05c-0.09,0.02-0.15,0.05-0.18,0.09c-0.04,0.06-0.06,0.16-0.06,0.32
	v0.35c0,0.17,0.01,0.29,0.04,0.33c0.03,0.05,0.1,0.08,0.22,0.09c0.24,0.02,0.72,0.03,1.43,0.03h0.55c1.29,0,2.13,0.11,2.51,0.32
	c0.31,0.18,0.52,0.42,0.62,0.72c0.06,0.2,0.1,0.52,0.1,0.96v0.18c0,0.45-0.05,0.8-0.15,1.04c-0.14,0.32-0.38,0.56-0.74,0.72
	c-0.35,0.16-1.13,0.24-2.34,0.24h-0.55c-1.21,0-1.99-0.08-2.34-0.24c-0.36-0.16-0.6-0.4-0.74-0.72c-0.11-0.24-0.16-0.59-0.16-1.04
	v-0.14l1.54-0.05v0.19c0,0.19,0.01,0.3,0.02,0.33c0.02,0.05,0.1,0.08,0.24,0.09c0.21,0.03,0.68,0.04,1.42,0.04h0.55
	c0.7,0,1.16-0.01,1.36-0.03c0.14-0.01,0.23-0.03,0.26-0.05c0.04-0.02,0.06-0.09,0.07-0.18v-0.69c0-0.11,0-0.2-0.02-0.26
	c-0.03-0.05-0.15-0.09-0.35-0.11c-0.26-0.02-0.7-0.03-1.32-0.03h-0.55c-1.21,0-1.99-0.08-2.34-0.24c-0.36-0.16-0.6-0.4-0.74-0.72
	c-0.11-0.24-0.16-0.59-0.16-1.04v-0.11c0-0.44,0.04-0.76,0.11-0.97c0.1-0.3,0.31-0.54,0.62-0.71c0.38-0.21,1.22-0.32,2.5-0.32h0.55
	c1.29,0,2.13,0.11,2.51,0.32c0.31,0.17,0.52,0.41,0.62,0.72c0.06,0.2,0.1,0.52,0.1,0.97V51.35z"/>
    <path class="st0" d="M152.74,51.35l-1.54,0.03v-0.37c0-0.13-0.03-0.2-0.09-0.23c-0.02-0.01-0.14-0.03-0.34-0.05
	c-0.25-0.02-0.67-0.03-1.26-0.03h-0.55c-0.78,0-1.27,0.02-1.45,0.05c-0.09,0.02-0.15,0.05-0.18,0.09c-0.04,0.06-0.06,0.16-0.06,0.32
	v0.35c0,0.17,0.01,0.29,0.04,0.33c0.03,0.05,0.1,0.08,0.22,0.09c0.24,0.02,0.72,0.03,1.43,0.03h0.55c1.29,0,2.13,0.11,2.51,0.32
	c0.31,0.18,0.52,0.42,0.62,0.72c0.06,0.2,0.1,0.52,0.1,0.96v0.18c0,0.45-0.05,0.8-0.15,1.04c-0.14,0.32-0.38,0.56-0.74,0.72
	c-0.35,0.16-1.13,0.24-2.34,0.24h-0.55c-1.21,0-1.99-0.08-2.34-0.24c-0.36-0.16-0.6-0.4-0.74-0.72c-0.11-0.24-0.16-0.59-0.16-1.04
	v-0.14l1.54-0.05v0.19c0,0.19,0.01,0.3,0.02,0.33c0.02,0.05,0.1,0.08,0.24,0.09c0.21,0.03,0.68,0.04,1.42,0.04h0.55
	c0.7,0,1.16-0.01,1.36-0.03c0.14-0.01,0.23-0.03,0.26-0.05c0.04-0.02,0.06-0.09,0.07-0.18v-0.69c0-0.11,0-0.2-0.02-0.26
	c-0.03-0.05-0.15-0.09-0.35-0.11c-0.26-0.02-0.7-0.03-1.32-0.03h-0.55c-1.21,0-1.99-0.08-2.34-0.24c-0.36-0.16-0.6-0.4-0.74-0.72
	c-0.11-0.24-0.16-0.59-0.16-1.04v-0.11c0-0.44,0.04-0.76,0.11-0.97c0.1-0.3,0.31-0.54,0.62-0.71c0.38-0.21,1.22-0.32,2.5-0.32h0.55
	c1.29,0,2.13,0.11,2.51,0.32c0.31,0.17,0.52,0.41,0.62,0.72c0.06,0.2,0.1,0.52,0.1,0.97V51.35z"/>
    <path class="st0" d="M158.44,49.16c0.75,0,1.32,0.04,1.71,0.14c0.43,0.11,0.76,0.29,1,0.56c0.23,0.26,0.38,0.6,0.45,1.02
	c0.05,0.3,0.07,0.81,0.07,1.53v0.51c0,0.75-0.05,1.32-0.14,1.7c-0.1,0.43-0.28,0.76-0.54,1.01c-0.26,0.23-0.59,0.39-1.01,0.46
	c-0.31,0.05-0.82,0.08-1.54,0.08h-0.55c-0.72,0-1.22-0.03-1.52-0.08c-0.42-0.07-0.76-0.22-1.01-0.45c-0.27-0.25-0.46-0.58-0.56-1.01
	c-0.09-0.38-0.14-0.94-0.14-1.69v-0.55c0-0.72,0.03-1.23,0.08-1.53c0.07-0.42,0.22-0.75,0.45-1.01c0.24-0.27,0.58-0.45,1.01-0.55
	c0.38-0.09,0.94-0.14,1.69-0.14H158.44z M157.89,50.71c-0.93,0-1.44,0.06-1.55,0.18c-0.09,0.1-0.14,0.6-0.14,1.51v0.55
	c0,0.93,0.06,1.44,0.18,1.55c0.1,0.09,0.6,0.14,1.51,0.14h0.55c0.91,0,1.41-0.04,1.51-0.14c0.12-0.11,0.18-0.63,0.18-1.56v-0.51
	c0-0.92-0.04-1.43-0.13-1.53c-0.11-0.12-0.62-0.18-1.56-0.18H157.89z"/>
    <path class="st0" d="M165.14,56.17h-1.54v-7.01h1.54v0.67c0.04-0.05,0.09-0.09,0.13-0.14c0.27-0.24,0.53-0.39,0.77-0.45
	c0.21-0.05,0.57-0.08,1.07-0.08c0.54,0,0.97,0.03,1.28,0.08c0.41,0.07,0.75,0.23,1.01,0.46c0.45,0.41,0.68,1.28,0.68,2.62
	l-1.54,0.05c0-0.91-0.06-1.42-0.18-1.52c-0.1-0.09-0.52-0.14-1.25-0.14h-0.28c-0.91,0-1.41,0.05-1.51,0.13
	c-0.12,0.11-0.18,0.6-0.18,1.46V56.17z"/>
    <path class="st0" d="M171.88,46.43h1.54v1.54h-1.54V46.43z M171.88,49.16h1.54v7.01h-1.54V49.16z"/>
    <path class="st0" d="M182.98,56.17h-1.54v-0.49c-0.19,0.22-0.49,0.37-0.91,0.43c-0.26,0.04-0.76,0.06-1.5,0.06h-0.08
	c-1.34,0-2.17-0.08-2.48-0.24c-0.33-0.17-0.54-0.39-0.64-0.67c-0.06-0.19-0.09-0.55-0.09-1.1v-0.31c0-0.55,0.03-0.91,0.09-1.1
	c0.09-0.28,0.31-0.5,0.64-0.67c0.31-0.16,1.14-0.24,2.48-0.24h0.15c0.71,0,1.2,0.02,1.46,0.05c0.4,0.06,0.69,0.2,0.87,0.41
	c0-0.79-0.1-1.26-0.3-1.42c-0.17-0.13-0.68-0.2-1.54-0.2h-0.64c-0.63,0-1.04,0-1.2,0.01c-0.19,0.01-0.3,0.02-0.34,0.04
	c-0.03,0.02-0.07,0.11-0.12,0.26l-0.09,0.28L175.7,51l0.2-0.64c0.17-0.56,0.48-0.9,0.93-1.04c0.31-0.1,1.02-0.14,2.13-0.14h0.64
	c0.96,0,1.59,0.02,1.91,0.05c0.47,0.05,0.81,0.18,1.01,0.38c0.2,0.21,0.33,0.55,0.39,1.04c0.04,0.36,0.07,1.04,0.07,2.02V56.17z
	 M177.98,53.39c-0.23,0-0.39,0.03-0.49,0.09c-0.13,0.07-0.19,0.2-0.19,0.38v0.31c0,0.3,0.19,0.46,0.57,0.47h2.71
	c0.23,0,0.43-0.02,0.59-0.08c0.11-0.03,0.19-0.1,0.22-0.18c0.03-0.07,0.04-0.19,0.04-0.36c0-0.17-0.01-0.3-0.04-0.36
	c-0.03-0.08-0.1-0.14-0.21-0.18c-0.16-0.05-0.39-0.07-0.67-0.07H177.98z"/>
    <path class="st0" d="M196.9,49.79h-1.54v-0.12c0-0.92-0.05-1.42-0.13-1.52c-0.11-0.12-0.62-0.18-1.56-0.18h-1.75
	c-0.93,0-1.45,0.06-1.56,0.18c-0.09,0.1-0.13,0.6-0.13,1.51v3.28c0,0.93,0.06,1.44,0.18,1.55c0.1,0.09,0.6,0.14,1.51,0.14h1.75
	c0.91,0,1.41-0.04,1.51-0.14c0.12-0.11,0.18-0.63,0.18-1.56v-0.11h1.54v0.11c0,0.75-0.04,1.32-0.13,1.7
	c-0.1,0.43-0.28,0.76-0.55,1.01c-0.26,0.23-0.59,0.39-1.01,0.46c-0.31,0.05-0.82,0.08-1.54,0.08h-1.75c-0.72,0-1.22-0.03-1.52-0.08
	c-0.42-0.07-0.76-0.22-1.01-0.45c-0.27-0.25-0.46-0.58-0.56-1.01c-0.09-0.38-0.14-0.94-0.14-1.69v-3.28c0-0.72,0.03-1.23,0.08-1.53
	c0.07-0.42,0.22-0.75,0.45-1.01c0.24-0.27,0.58-0.45,1.01-0.55c0.38-0.09,0.94-0.14,1.69-0.14h1.75c0.75,0,1.32,0.05,1.71,0.14
	c0.43,0.11,0.76,0.29,1,0.56c0.23,0.26,0.38,0.6,0.45,1.02c0.05,0.29,0.07,0.8,0.07,1.52V49.79z"/>
    <path class="st0" d="M202.61,49.16c0.75,0,1.32,0.04,1.71,0.14c0.43,0.11,0.76,0.29,1,0.56c0.23,0.26,0.38,0.6,0.45,1.02
	c0.05,0.3,0.07,0.81,0.07,1.53v0.51c0,0.75-0.05,1.32-0.14,1.7c-0.1,0.43-0.28,0.76-0.54,1.01c-0.26,0.23-0.59,0.39-1.01,0.46
	c-0.31,0.05-0.82,0.08-1.54,0.08h-0.55c-0.72,0-1.22-0.03-1.52-0.08c-0.42-0.07-0.76-0.22-1.01-0.45c-0.27-0.25-0.46-0.58-0.56-1.01
	c-0.09-0.38-0.14-0.94-0.14-1.69v-0.55c0-0.72,0.03-1.23,0.08-1.53c0.07-0.42,0.22-0.75,0.45-1.01c0.24-0.27,0.58-0.45,1.01-0.55
	c0.38-0.09,0.94-0.14,1.69-0.14H202.61z M202.06,50.71c-0.93,0-1.44,0.06-1.55,0.18c-0.09,0.1-0.14,0.6-0.14,1.51v0.55
	c0,0.93,0.06,1.44,0.18,1.55c0.1,0.09,0.6,0.14,1.51,0.14h0.55c0.91,0,1.41-0.04,1.51-0.14c0.12-0.11,0.18-0.63,0.18-1.56v-0.51
	c0-0.92-0.04-1.43-0.13-1.53c-0.11-0.12-0.62-0.18-1.56-0.18H202.06z"/>
    <path class="st0" d="M207.76,49.16h1.54v0.66c0.42-0.44,1.14-0.66,2.18-0.66h0.05c0.75,0,1.31,0.04,1.69,0.14
	c0.43,0.1,0.76,0.28,1.01,0.55c0.23,0.26,0.38,0.59,0.45,1.01c0.05,0.3,0.08,0.81,0.08,1.53v3.78h-1.54v-3.78
	c0-0.91-0.04-1.41-0.13-1.51c-0.11-0.12-0.63-0.18-1.56-0.18h-0.55c-0.93,0-1.45,0.06-1.56,0.18c-0.09,0.1-0.13,0.56-0.13,1.37v3.92
	h-1.54V49.16z"/>
    <path class="st0" d="M221.81,53.14h1.54v1.02c0,0.28-0.02,0.52-0.06,0.71c-0.05,0.28-0.15,0.51-0.31,0.7
	c-0.17,0.21-0.39,0.36-0.68,0.45c-0.2,0.06-0.44,0.1-0.74,0.13c-0.11,0-0.27,0.01-0.47,0.01c-0.26,0-0.44,0.01-0.55,0.01l-0.49-0.01
	c-0.17,0-0.31,0-0.41-0.01c-0.29-0.01-0.53-0.04-0.72-0.09c-0.28-0.07-0.51-0.18-0.7-0.35c-0.21-0.19-0.35-0.45-0.43-0.76
	c-0.05-0.21-0.07-0.47-0.07-0.79v-3.62h-1.04v-1.38h1.04v-2.73h1.54v2.73h3.76v1.38h-3.76v3.55c0,0.14,0.04,0.26,0.12,0.36
	c0.09,0.1,0.2,0.16,0.32,0.17c0.12,0,0.24,0,0.36,0h1c0.14,0,0.27,0,0.4-0.01c0.17-0.01,0.26-0.04,0.29-0.08
	c0.02-0.04,0.04-0.16,0.04-0.38V53.14z"/>
    <path class="st0" d="M227.58,48.58l1.17-2.22h1.97l-1.83,2.22H227.58z M232.27,56.17h-1.54v-0.49c-0.19,0.22-0.49,0.37-0.91,0.43
	c-0.26,0.04-0.76,0.06-1.5,0.06h-0.08c-1.34,0-2.17-0.08-2.48-0.24c-0.33-0.17-0.54-0.39-0.64-0.67c-0.06-0.19-0.08-0.55-0.08-1.1
	v-0.31c0-0.55,0.03-0.91,0.08-1.1c0.09-0.28,0.3-0.5,0.64-0.67c0.31-0.16,1.14-0.24,2.48-0.24h0.15c0.71,0,1.2,0.02,1.46,0.05
	c0.4,0.06,0.69,0.2,0.87,0.41c0-0.79-0.1-1.26-0.3-1.42c-0.17-0.13-0.68-0.2-1.54-0.2h-0.64c-0.63,0-1.04,0-1.2,0.01
	c-0.19,0.01-0.31,0.02-0.34,0.04c-0.03,0.02-0.07,0.11-0.12,0.26l-0.09,0.28L225,51l0.2-0.64c0.17-0.56,0.48-0.9,0.93-1.04
	c0.31-0.1,1.02-0.14,2.13-0.14h0.64c0.96,0,1.59,0.02,1.91,0.05c0.47,0.05,0.81,0.18,1.01,0.38c0.2,0.21,0.33,0.55,0.39,1.04
	c0.04,0.36,0.06,1.04,0.06,2.02V56.17z M227.27,53.39c-0.23,0-0.39,0.03-0.49,0.09c-0.13,0.07-0.19,0.2-0.19,0.38v0.31
	c0,0.3,0.19,0.46,0.57,0.47h2.71c0.23,0,0.43-0.02,0.59-0.08c0.11-0.03,0.19-0.1,0.22-0.18c0.03-0.07,0.04-0.19,0.04-0.36
	c0-0.17-0.01-0.3-0.04-0.36c-0.03-0.08-0.1-0.14-0.21-0.18c-0.16-0.05-0.39-0.07-0.67-0.07H227.27z"/>
    <path class="st0" d="M235.74,52.24c0-0.8,0.04-1.25,0.13-1.35c0.11-0.12,0.63-0.18,1.56-0.18h0.55c0.93,0,1.45,0.06,1.56,0.18
	c0.09,0.1,0.13,0.61,0.13,1.53v0.51c0,0.93-0.06,1.45-0.18,1.56c-0.1,0.09-0.6,0.14-1.51,0.14h-0.55c-0.91,0-1.41-0.04-1.51-0.14
	c-0.12-0.11-0.18-0.59-0.18-1.46V52.24z M235.74,46.43h-1.54v9.74h1.54V55.5c0.04,0.05,0.09,0.09,0.13,0.14
	c0.27,0.24,0.53,0.39,0.77,0.45c0.21,0.05,0.64,0.08,1.28,0.08h0.05c0.72,0,1.23-0.03,1.54-0.08c0.42-0.07,0.75-0.23,1.01-0.46
	c0.26-0.25,0.45-0.58,0.54-1.01c0.09-0.38,0.14-0.95,0.14-1.7v-0.51c0-0.72-0.02-1.23-0.07-1.53c-0.07-0.42-0.22-0.76-0.45-1.02
	c-0.24-0.27-0.57-0.46-1-0.56c-0.39-0.09-0.96-0.14-1.71-0.14h-0.05c-0.68,0-1.16,0.04-1.44,0.13c-0.25,0.08-0.49,0.26-0.74,0.53
	V46.43z"/>
    <path class="st0" d="M243.46,46.43H245v1.54h-1.54V46.43z M243.46,49.16H245v7.01h-1.54V49.16z"/>
    <rect x="247.71" y="46.43" class="st0" width="1.54" height="9.74"/>
    <path class="st0" d="M176.44,37.42c0.6,0,1.07-0.17,1.39-0.5c0.32-0.33,0.56-0.8,0.72-1.39c-0.54-0.94-1.07-1.86-1.59-2.76
	c-0.52-0.91-1.01-1.77-1.47-2.59c-0.12,0.11-0.24,0.22-0.35,0.31c-0.09,0.1-0.18,0.19-0.26,0.29c-0.09,0.1-0.16,0.17-0.21,0.23
	c-0.29,0.38-0.48,0.83-0.58,1.35c-0.1,0.52-0.16,1.07-0.16,1.66c0,0.02,0,0.06,0,0.11c0,0.06,0.01,0.14,0.02,0.26
	c0.01,0.17,0.05,0.45,0.12,0.84c0.07,0.39,0.19,0.75,0.38,1.07C174.86,37.04,175.53,37.42,176.44,37.42 M174.97,25.11
	c0.02,0.52,0.1,0.92,0.22,1.22c0.13,0.3,0.28,0.6,0.45,0.9l0.08,0.14l1.48-1.43c0.25-0.31,0.41-0.65,0.48-1.04
	c0.07-0.39,0.1-0.87,0.1-1.45V21.9c-0.01-0.04-0.02-0.09-0.02-0.14c0-0.06-0.01-0.11-0.02-0.17c-0.05-0.31-0.18-0.59-0.37-0.86
	c-0.19-0.27-0.53-0.4-1.01-0.4s-0.82,0.13-1,0.4c-0.19,0.27-0.31,0.55-0.36,0.86c-0.01,0.06-0.02,0.14-0.03,0.24
	c-0.01,0.11-0.01,0.18-0.01,0.21V25.11z M180.65,39.16c-0.18-0.31-0.36-0.61-0.54-0.92c-0.19-0.31-0.37-0.62-0.54-0.94
	c-0.26,0.63-0.64,1.12-1.14,1.47c-0.5,0.35-1.18,0.53-2.03,0.53c-1.57,0-2.66-0.61-3.26-1.83c-0.22-0.44-0.36-0.89-0.43-1.36
	c-0.07-0.47-0.1-0.88-0.1-1.25v-1.29c0-0.94,0.12-1.81,0.35-2.63c0.23-0.82,0.6-1.48,1.12-1.98l0.48-0.46
	c-0.07-0.1-0.13-0.2-0.19-0.31c-0.06-0.11-0.12-0.22-0.17-0.31l-0.08-0.11c-0.21-0.4-0.35-0.87-0.42-1.42
	c-0.07-0.54-0.11-1.19-0.11-1.93v-2.81c0-0.1,0.01-0.22,0.02-0.39c0.01-0.16,0.03-0.33,0.05-0.5c0.04-0.27,0.11-0.54,0.21-0.82
	c0.09-0.28,0.23-0.54,0.41-0.79c0.18-0.25,0.41-0.46,0.69-0.63c0.28-0.17,0.63-0.28,1.05-0.31c0.06-0.02,0.1-0.03,0.15-0.03h0.23
	c0.06,0,0.13,0,0.23,0.01c0.1,0.01,0.15,0.01,0.16,0.01c0.42,0.04,0.77,0.14,1.05,0.31s0.51,0.38,0.68,0.63
	c0.18,0.25,0.31,0.51,0.4,0.79c0.09,0.28,0.16,0.54,0.21,0.79c0.03,0.19,0.05,0.37,0.06,0.53c0.01,0.16,0.01,0.29,0.01,0.39v2.26
	c0,0.92-0.09,1.67-0.26,2.26c-0.18,0.59-0.47,1.1-0.89,1.52L176.67,29l2.3,4.21v-1.95l1.19-1.4v3.01c0,0.38-0.01,0.74-0.02,1.09
	c-0.01,0.34-0.03,0.68-0.07,1c0.33,0.57,0.63,1.11,0.91,1.62c0.28,0.51,0.53,0.95,0.75,1.33c0.25,0.46,0.48,0.88,0.67,1.26H180.65z"
    />
    <path d="M13.12,69.04l-0.84,0.04v-0.09c0-0.38-0.02-0.59-0.05-0.62c-0.06-0.05-0.35-0.08-0.87-0.08H10.4
	c-0.52,0-0.81,0.03-0.87,0.09c-0.03,0.03-0.05,0.23-0.05,0.6c0,0.39,0.02,0.6,0.06,0.63c0.06,0.05,0.35,0.07,0.86,0.07h0.95
	c0.73,0,1.2,0.1,1.42,0.29c0.14,0.12,0.24,0.29,0.29,0.49c0.04,0.16,0.05,0.41,0.05,0.76c0,0.36-0.03,0.63-0.08,0.81
	c-0.06,0.21-0.17,0.37-0.32,0.48c-0.21,0.16-0.66,0.24-1.36,0.24H10.4c-0.71,0-1.18-0.09-1.39-0.27C8.86,72.37,8.76,72.21,8.7,72
	c-0.04-0.17-0.06-0.43-0.06-0.78v-0.15h0.84v0.15c0,0.39,0.02,0.6,0.06,0.63c0.06,0.05,0.35,0.07,0.86,0.07h0.95
	c0.51,0,0.79-0.02,0.85-0.07c0.05-0.03,0.07-0.24,0.07-0.63c0-0.38-0.02-0.59-0.05-0.62c-0.06-0.05-0.35-0.08-0.87-0.08H10.4
	c-0.71,0-1.18-0.09-1.39-0.27c-0.15-0.12-0.25-0.28-0.3-0.49c-0.04-0.17-0.06-0.44-0.06-0.79c0-0.34,0.02-0.58,0.05-0.73
	c0.04-0.2,0.13-0.36,0.27-0.49c0.22-0.21,0.71-0.31,1.44-0.31h0.95c0.73,0,1.2,0.1,1.42,0.29c0.14,0.12,0.24,0.29,0.29,0.49
	c0.04,0.16,0.05,0.41,0.05,0.76V69.04z"/>
    <path d="M17.99,72.76h-0.84V72.4c-0.23,0.24-0.62,0.37-1.19,0.37h-0.03c-0.41,0-0.72-0.03-0.92-0.08c-0.23-0.05-0.42-0.16-0.55-0.3
	c-0.13-0.14-0.21-0.32-0.25-0.55c-0.03-0.16-0.04-0.44-0.04-0.83v-2.06h0.84V71c0,0.49,0.03,0.77,0.08,0.82
	c0.06,0.07,0.34,0.1,0.84,0.1h0.3c0.51,0,0.79-0.03,0.85-0.1c0.05-0.05,0.07-0.3,0.07-0.74v-2.14h0.84V72.76z"/>
    <path d="M19.88,71.09c0,0.44,0.02,0.68,0.07,0.73c0.06,0.07,0.34,0.1,0.85,0.1h0.3c0.51,0,0.79-0.03,0.85-0.1
	c0.05-0.05,0.07-0.33,0.07-0.83v-0.28c0-0.51-0.03-0.79-0.1-0.85c-0.06-0.05-0.33-0.08-0.82-0.08h-0.3c-0.49,0-0.77,0.02-0.82,0.07
	c-0.06,0.06-0.1,0.33-0.1,0.8V71.09z M19.88,74.25h-0.84v-5.31h0.84v0.37c0.02-0.03,0.05-0.05,0.07-0.08
	c0.15-0.13,0.29-0.22,0.42-0.25c0.12-0.03,0.35-0.04,0.7-0.04h0.03c0.39,0,0.67,0.01,0.84,0.04c0.23,0.04,0.41,0.12,0.55,0.25
	c0.14,0.13,0.24,0.32,0.3,0.55c0.05,0.21,0.08,0.52,0.08,0.93v0.28c0,0.39-0.01,0.67-0.04,0.83c-0.04,0.23-0.12,0.41-0.25,0.55
	c-0.13,0.15-0.31,0.25-0.55,0.3c-0.21,0.05-0.52,0.08-0.93,0.08h-0.03c-0.37,0-0.63-0.02-0.78-0.07c-0.13-0.04-0.27-0.14-0.41-0.29
	V74.25z"/>
    <path d="M25.96,68.94c0.41,0,0.72,0.02,0.93,0.07c0.23,0.06,0.41,0.16,0.55,0.31c0.13,0.14,0.21,0.33,0.25,0.56
	c0.03,0.16,0.04,0.44,0.04,0.83v0.28c0,0.41-0.03,0.72-0.08,0.93c-0.05,0.23-0.15,0.41-0.3,0.55c-0.14,0.13-0.32,0.21-0.55,0.25
	c-0.17,0.03-0.45,0.04-0.84,0.04h-0.3c-0.39,0-0.67-0.01-0.83-0.04c-0.23-0.04-0.41-0.12-0.55-0.25c-0.15-0.13-0.25-0.32-0.31-0.55
	c-0.05-0.21-0.07-0.51-0.07-0.92v-0.3c0-0.39,0.01-0.67,0.04-0.83c0.04-0.23,0.12-0.41,0.25-0.55c0.13-0.15,0.31-0.25,0.55-0.3
	c0.21-0.05,0.51-0.07,0.92-0.07H25.96z M25.67,69.78c-0.51,0-0.79,0.03-0.84,0.1c-0.05,0.05-0.08,0.33-0.08,0.82V71
	c0,0.51,0.03,0.79,0.1,0.84c0.05,0.05,0.33,0.07,0.82,0.07h0.3c0.49,0,0.77-0.02,0.82-0.07c0.07-0.06,0.1-0.34,0.1-0.85v-0.28
	c0-0.5-0.02-0.78-0.07-0.83c-0.06-0.06-0.34-0.1-0.85-0.1H25.67z"/>
    <path d="M29.62,72.76h-0.84v-3.82h0.84v0.37c0.02-0.03,0.05-0.05,0.07-0.08c0.15-0.13,0.29-0.22,0.42-0.25
	c0.12-0.03,0.31-0.04,0.58-0.04c0.3,0,0.53,0.01,0.7,0.04c0.23,0.04,0.41,0.12,0.55,0.25c0.25,0.23,0.37,0.7,0.37,1.43l-0.84,0.03
	c0-0.5-0.03-0.77-0.1-0.83c-0.05-0.05-0.28-0.08-0.68-0.08h-0.15c-0.49,0-0.77,0.02-0.82,0.07c-0.06,0.06-0.1,0.33-0.1,0.8V72.76z"
    />
    <path d="M35.91,71.11h0.84v0.56c0,0.16-0.01,0.28-0.03,0.39c-0.03,0.15-0.08,0.28-0.17,0.38c-0.09,0.11-0.21,0.2-0.37,0.25
	c-0.11,0.03-0.24,0.06-0.4,0.07c-0.06,0-0.15,0-0.26,0.01c-0.14,0-0.24,0-0.3,0l-0.27,0c-0.09,0-0.17,0-0.23,0
	c-0.16-0.01-0.29-0.02-0.39-0.05c-0.15-0.04-0.28-0.1-0.38-0.19c-0.11-0.11-0.19-0.24-0.23-0.42c-0.03-0.11-0.04-0.26-0.04-0.43
	v-1.98h-0.57v-0.75h0.57v-1.49h0.84v1.49h2.05v0.75h-2.05v1.94c0,0.08,0.02,0.14,0.06,0.2c0.05,0.05,0.11,0.09,0.18,0.09
	c0.06,0,0.13,0,0.2,0h0.55c0.08,0,0.15,0,0.22-0.01c0.09-0.01,0.14-0.02,0.16-0.04c0.01-0.02,0.02-0.09,0.02-0.21V71.11z"/>
    <path d="M40.61,70.52c0-0.38-0.03-0.59-0.07-0.64c-0.06-0.06-0.34-0.1-0.85-0.1h-0.3c-0.51,0-0.79,0.03-0.85,0.1
	c-0.04,0.05-0.07,0.26-0.07,0.64H40.61z M37.63,70.43c0.01-0.53,0.1-0.9,0.29-1.11c0.13-0.15,0.31-0.25,0.55-0.31
	c0.21-0.05,0.52-0.07,0.93-0.07h0.3c0.41,0,0.72,0.02,0.92,0.07c0.23,0.05,0.42,0.16,0.55,0.3c0.13,0.14,0.21,0.32,0.25,0.55
	c0.03,0.17,0.04,0.44,0.04,0.83v0.48h-2.98c0.01,0.39,0.04,0.61,0.09,0.66c0.05,0.05,0.33,0.07,0.82,0.07h0.34
	c0.4,0,0.65-0.01,0.76-0.04c0.05-0.01,0.08-0.05,0.1-0.1l0.1-0.22l0.75,0.18l-0.1,0.32c-0.11,0.33-0.34,0.54-0.67,0.63
	c-0.18,0.05-0.51,0.08-0.98,0.08h-0.3c-0.39,0-0.67-0.01-0.84-0.04c-0.23-0.04-0.41-0.12-0.55-0.25c-0.23-0.21-0.36-0.61-0.37-1.2
	V70.43z"/>
    <path d="M47.55,70.52c0-0.38-0.03-0.59-0.07-0.64c-0.06-0.06-0.34-0.1-0.85-0.1h-0.3c-0.51,0-0.79,0.03-0.85,0.1
	c-0.04,0.05-0.07,0.26-0.07,0.64H47.55z M44.57,70.43c0.01-0.53,0.1-0.9,0.29-1.11c0.13-0.15,0.31-0.25,0.55-0.31
	c0.21-0.05,0.52-0.07,0.93-0.07h0.3c0.41,0,0.72,0.02,0.92,0.07c0.23,0.05,0.42,0.16,0.55,0.3c0.13,0.14,0.21,0.32,0.25,0.55
	c0.03,0.17,0.04,0.44,0.04,0.83v0.48h-2.98c0.01,0.39,0.04,0.61,0.09,0.66c0.05,0.05,0.33,0.07,0.82,0.07h0.34
	c0.4,0,0.65-0.01,0.76-0.04c0.05-0.01,0.08-0.05,0.1-0.1l0.1-0.22l0.75,0.18l-0.1,0.32c-0.11,0.33-0.34,0.54-0.67,0.63
	c-0.18,0.05-0.51,0.08-0.98,0.08h-0.3c-0.39,0-0.67-0.01-0.84-0.04c-0.23-0.04-0.41-0.12-0.55-0.25c-0.23-0.21-0.36-0.61-0.37-1.2
	V70.43z"/>
    <path d="M53.26,70.13l-0.84,0.02v-0.2c0-0.07-0.01-0.11-0.05-0.12c-0.01-0.01-0.08-0.02-0.19-0.03c-0.14-0.01-0.37-0.01-0.69-0.01
	h-0.3c-0.43,0-0.69,0.01-0.79,0.03c-0.05,0.01-0.08,0.03-0.1,0.05c-0.02,0.03-0.03,0.09-0.03,0.18v0.19c0,0.1,0.01,0.16,0.02,0.18
	c0.02,0.03,0.06,0.04,0.12,0.05c0.13,0.01,0.39,0.02,0.78,0.02h0.3c0.7,0,1.16,0.06,1.37,0.17c0.17,0.1,0.28,0.23,0.34,0.39
	c0.04,0.11,0.05,0.28,0.05,0.53v0.1c0,0.25-0.03,0.44-0.08,0.57c-0.07,0.17-0.21,0.31-0.4,0.39c-0.19,0.09-0.62,0.13-1.28,0.13h-0.3
	c-0.66,0-1.09-0.04-1.28-0.13c-0.2-0.09-0.33-0.22-0.4-0.39c-0.06-0.13-0.09-0.32-0.09-0.57v-0.07l0.84-0.03v0.1
	c0,0.11,0,0.16,0.01,0.18c0.01,0.03,0.06,0.04,0.13,0.05c0.11,0.01,0.37,0.02,0.78,0.02h0.3c0.38,0,0.63-0.01,0.74-0.02
	c0.08-0.01,0.12-0.02,0.14-0.03c0.02-0.01,0.04-0.05,0.04-0.1V71.4c0-0.06,0-0.11-0.01-0.14c-0.02-0.03-0.08-0.05-0.19-0.06
	c-0.14-0.01-0.38-0.02-0.72-0.02h-0.3c-0.66,0-1.09-0.04-1.28-0.13c-0.2-0.09-0.33-0.22-0.4-0.39c-0.06-0.13-0.09-0.32-0.09-0.57
	v-0.06c0-0.24,0.02-0.42,0.06-0.53c0.05-0.16,0.17-0.29,0.34-0.39c0.21-0.11,0.66-0.17,1.36-0.17h0.3c0.7,0,1.16,0.06,1.37,0.18
	c0.17,0.1,0.28,0.23,0.34,0.39c0.04,0.11,0.05,0.29,0.05,0.53V70.13z"/>
    <path d="M55.15,71.09c0,0.44,0.02,0.68,0.07,0.73c0.06,0.07,0.34,0.1,0.85,0.1h0.3c0.51,0,0.79-0.03,0.85-0.1
	c0.05-0.05,0.07-0.33,0.07-0.83v-0.28c0-0.51-0.03-0.79-0.1-0.85c-0.06-0.05-0.33-0.08-0.82-0.08h-0.3c-0.49,0-0.77,0.02-0.82,0.07
	c-0.06,0.06-0.1,0.33-0.1,0.8V71.09z M55.15,74.25h-0.84v-5.31h0.84v0.37c0.02-0.03,0.05-0.05,0.07-0.08
	c0.15-0.13,0.29-0.22,0.42-0.25c0.12-0.03,0.35-0.04,0.7-0.04h0.03c0.39,0,0.67,0.01,0.84,0.04c0.23,0.04,0.41,0.12,0.55,0.25
	c0.14,0.13,0.24,0.32,0.3,0.55c0.05,0.21,0.08,0.52,0.08,0.93v0.28c0,0.39-0.01,0.67-0.04,0.83c-0.04,0.23-0.12,0.41-0.25,0.55
	c-0.13,0.15-0.31,0.25-0.55,0.3c-0.21,0.05-0.52,0.08-0.93,0.08h-0.03c-0.37,0-0.63-0.02-0.78-0.07c-0.13-0.04-0.27-0.14-0.41-0.29
	V74.25z"/>
    <path d="M62.16,70.52c0-0.38-0.03-0.59-0.07-0.64c-0.06-0.06-0.34-0.1-0.85-0.1h-0.3c-0.51,0-0.79,0.03-0.85,0.1
	c-0.04,0.05-0.07,0.26-0.07,0.64H62.16z M59.18,70.43c0.01-0.53,0.1-0.9,0.29-1.11c0.13-0.15,0.31-0.25,0.55-0.31
	c0.21-0.05,0.52-0.07,0.93-0.07h0.3c0.41,0,0.72,0.02,0.92,0.07c0.23,0.05,0.42,0.16,0.55,0.3c0.13,0.14,0.21,0.32,0.25,0.55
	C62.98,70.03,63,70.31,63,70.7v0.48h-2.98c0.01,0.39,0.04,0.61,0.09,0.66c0.05,0.05,0.33,0.07,0.82,0.07h0.34
	c0.4,0,0.65-0.01,0.76-0.04c0.05-0.01,0.08-0.05,0.1-0.1l0.1-0.22l0.75,0.18l-0.1,0.32c-0.11,0.33-0.34,0.54-0.67,0.63
	c-0.18,0.05-0.51,0.08-0.98,0.08h-0.3c-0.39,0-0.67-0.01-0.84-0.04c-0.23-0.04-0.41-0.12-0.55-0.25c-0.23-0.21-0.36-0.61-0.37-1.2
	V70.43z"/>
    <path d="M67.06,71.24l0.83,0.14l-0.07,0.41c-0.07,0.44-0.28,0.72-0.62,0.86c-0.2,0.08-0.56,0.12-1.1,0.12h-0.3
	c-0.39,0-0.67-0.01-0.84-0.04c-0.23-0.04-0.41-0.12-0.55-0.25c-0.14-0.13-0.24-0.32-0.3-0.55c-0.05-0.21-0.07-0.52-0.07-0.93v-0.28
	c0-0.39,0.01-0.67,0.04-0.83c0.04-0.23,0.12-0.41,0.25-0.56c0.13-0.15,0.31-0.25,0.55-0.31c0.21-0.05,0.52-0.07,0.93-0.07h0.3
	c0.54,0,0.92,0.05,1.15,0.15c0.32,0.14,0.51,0.41,0.58,0.8l0.07,0.41l-0.83,0.14L67,70.02c-0.02-0.09-0.05-0.15-0.09-0.16
	c-0.11-0.05-0.38-0.08-0.81-0.08h-0.3c-0.51,0-0.79,0.03-0.85,0.1c-0.05,0.05-0.07,0.33-0.07,0.83v0.28c0,0.51,0.03,0.79,0.1,0.85
	c0.05,0.05,0.33,0.07,0.82,0.07h0.3c0.43,0,0.7-0.02,0.79-0.05c0.04-0.02,0.08-0.09,0.1-0.22L67.06,71.24z"/>
    <path d="M69.13,67.45h0.84v0.84h-0.84V67.45z M69.13,68.94h0.84v3.82h-0.84V68.94z"/>
    <path d="M75.18,72.76h-0.84v-0.27c-0.1,0.12-0.27,0.2-0.49,0.23c-0.14,0.02-0.42,0.04-0.82,0.04h-0.04c-0.73,0-1.18-0.04-1.35-0.13
	c-0.18-0.09-0.3-0.22-0.35-0.37c-0.03-0.1-0.05-0.3-0.05-0.6V71.5c0-0.3,0.02-0.5,0.05-0.6c0.05-0.15,0.17-0.27,0.35-0.36
	c0.17-0.09,0.62-0.13,1.35-0.13h0.08c0.39,0,0.65,0.01,0.8,0.03c0.22,0.03,0.38,0.11,0.48,0.22c0-0.43-0.06-0.69-0.16-0.77
	c-0.09-0.07-0.37-0.11-0.84-0.11h-0.35c-0.35,0-0.56,0-0.66,0.01c-0.11,0-0.17,0.01-0.18,0.02c-0.02,0.01-0.04,0.06-0.06,0.14
	l-0.05,0.15l-0.82-0.16l0.11-0.35c0.09-0.3,0.26-0.49,0.5-0.57c0.17-0.05,0.56-0.08,1.16-0.08h0.35c0.52,0,0.87,0.01,1.04,0.03
	c0.26,0.03,0.44,0.1,0.55,0.21c0.11,0.11,0.18,0.3,0.22,0.57c0.02,0.2,0.04,0.57,0.04,1.1V72.76z M72.45,71.25
	c-0.12,0-0.21,0.02-0.27,0.05c-0.07,0.04-0.1,0.11-0.1,0.21v0.17c0,0.16,0.1,0.25,0.31,0.25h1.48c0.12,0,0.23-0.01,0.32-0.04
	c0.06-0.02,0.1-0.05,0.12-0.1c0.02-0.04,0.02-0.1,0.02-0.2c0-0.1-0.01-0.16-0.02-0.2c-0.02-0.04-0.06-0.08-0.11-0.1
	c-0.09-0.03-0.21-0.04-0.37-0.04H72.45z"/>
    <rect x="76.48" y="67.45" width="0.84" height="5.31"/>
    <path d="M78.8,67.45h0.84v0.84H78.8V67.45z M78.8,68.94h0.84v3.82H78.8V68.94z"/>
    <path d="M80.87,69.78v-0.84h2.36c0.15,0,0.28,0.04,0.4,0.11c0.13,0.08,0.22,0.18,0.28,0.32c0.06,0.14,0.07,0.29,0.05,0.44
	c-0.03,0.14-0.1,0.27-0.22,0.37l-1.99,1.74h2.21v0.84h-2.5c-0.15,0-0.28-0.04-0.4-0.11c-0.13-0.08-0.22-0.18-0.28-0.32
	c-0.06-0.14-0.08-0.29-0.05-0.43c0.03-0.14,0.1-0.27,0.22-0.37l1.98-1.74H80.87z"/>
    <path d="M88.86,72.76h-0.84v-0.27c-0.1,0.12-0.27,0.2-0.49,0.23c-0.14,0.02-0.42,0.04-0.82,0.04h-0.04c-0.73,0-1.18-0.04-1.35-0.13
	c-0.18-0.09-0.3-0.22-0.35-0.37c-0.03-0.1-0.05-0.3-0.05-0.6V71.5c0-0.3,0.02-0.5,0.05-0.6c0.05-0.15,0.17-0.27,0.35-0.36
	c0.17-0.09,0.62-0.13,1.35-0.13h0.08c0.39,0,0.65,0.01,0.8,0.03c0.22,0.03,0.38,0.11,0.48,0.22c0-0.43-0.06-0.69-0.16-0.77
	c-0.09-0.07-0.37-0.11-0.84-0.11h-0.35c-0.35,0-0.56,0-0.66,0.01c-0.11,0-0.17,0.01-0.18,0.02c-0.02,0.01-0.04,0.06-0.06,0.14
	l-0.05,0.15l-0.82-0.16L85,69.59c0.09-0.3,0.26-0.49,0.5-0.57c0.17-0.05,0.56-0.08,1.16-0.08h0.35c0.52,0,0.87,0.01,1.04,0.03
	c0.26,0.03,0.44,0.1,0.55,0.21c0.11,0.11,0.18,0.3,0.22,0.57c0.02,0.2,0.04,0.57,0.04,1.1V72.76z M86.13,71.25
	c-0.12,0-0.21,0.02-0.27,0.05c-0.07,0.04-0.1,0.11-0.1,0.21v0.17c0,0.16,0.1,0.25,0.31,0.25h1.48c0.12,0,0.23-0.01,0.32-0.04
	c0.06-0.02,0.1-0.05,0.12-0.1c0.02-0.04,0.02-0.1,0.02-0.2c0-0.1-0.01-0.16-0.02-0.2c-0.02-0.04-0.06-0.08-0.11-0.1
	c-0.09-0.03-0.21-0.04-0.37-0.04H86.13z"/>
    <path d="M92.89,70.62c0-0.44-0.02-0.68-0.07-0.74c-0.06-0.06-0.34-0.1-0.85-0.1h-0.3c-0.51,0-0.79,0.03-0.85,0.1
	c-0.05,0.05-0.07,0.33-0.07,0.83v0.28c0,0.51,0.03,0.79,0.1,0.85c0.05,0.05,0.33,0.07,0.82,0.07h0.3c0.49,0,0.77-0.02,0.82-0.07
	c0.06-0.06,0.1-0.32,0.1-0.8V70.62z M92.89,67.45h0.84v5.31h-0.84V72.4c-0.02,0.03-0.05,0.05-0.07,0.08
	c-0.15,0.13-0.29,0.22-0.42,0.25c-0.12,0.03-0.35,0.04-0.7,0.04h-0.03c-0.39,0-0.67-0.01-0.84-0.04c-0.23-0.04-0.41-0.12-0.55-0.25
	c-0.14-0.13-0.24-0.32-0.3-0.55c-0.05-0.21-0.07-0.52-0.07-0.93v-0.28c0-0.39,0.01-0.67,0.04-0.83c0.04-0.23,0.12-0.41,0.25-0.56
	c0.13-0.15,0.31-0.25,0.55-0.31c0.21-0.05,0.52-0.07,0.93-0.07h0.03c0.37,0,0.63,0.02,0.78,0.07c0.13,0.04,0.27,0.14,0.4,0.29V67.45
	z"/>
    <path d="M96.84,68.94c0.41,0,0.72,0.02,0.93,0.07c0.23,0.06,0.41,0.16,0.55,0.31c0.13,0.14,0.21,0.33,0.25,0.56
	c0.03,0.16,0.04,0.44,0.04,0.83v0.28c0,0.41-0.03,0.72-0.08,0.93c-0.05,0.23-0.15,0.41-0.3,0.55c-0.14,0.13-0.32,0.21-0.55,0.25
	c-0.17,0.03-0.45,0.04-0.84,0.04h-0.3c-0.39,0-0.67-0.01-0.83-0.04c-0.23-0.04-0.41-0.12-0.55-0.25c-0.15-0.13-0.25-0.32-0.31-0.55
	c-0.05-0.21-0.07-0.51-0.07-0.92v-0.3c0-0.39,0.01-0.67,0.04-0.83c0.04-0.23,0.12-0.41,0.25-0.55c0.13-0.15,0.31-0.25,0.55-0.3
	c0.21-0.05,0.51-0.07,0.92-0.07H96.84z M96.54,69.78c-0.51,0-0.79,0.03-0.84,0.1c-0.05,0.05-0.08,0.33-0.08,0.82V71
	c0,0.51,0.03,0.79,0.1,0.84c0.05,0.05,0.33,0.07,0.82,0.07h0.3c0.49,0,0.77-0.02,0.82-0.07c0.06-0.06,0.1-0.34,0.1-0.85v-0.28
	c0-0.5-0.02-0.78-0.07-0.83c-0.06-0.06-0.34-0.1-0.85-0.1H96.54z"/>
    <path d="M102.56,71.09c0,0.44,0.02,0.68,0.07,0.73c0.06,0.07,0.34,0.1,0.85,0.1h0.3c0.51,0,0.79-0.03,0.85-0.1
	c0.05-0.05,0.07-0.33,0.07-0.83v-0.28c0-0.51-0.03-0.79-0.1-0.85c-0.06-0.05-0.33-0.08-0.82-0.08h-0.3c-0.49,0-0.77,0.02-0.82,0.07
	c-0.06,0.06-0.1,0.33-0.1,0.8V71.09z M102.56,74.25h-0.84v-5.31h0.84v0.37c0.02-0.03,0.05-0.05,0.07-0.08
	c0.15-0.13,0.29-0.22,0.42-0.25c0.12-0.03,0.35-0.04,0.7-0.04h0.03c0.39,0,0.67,0.01,0.84,0.04c0.23,0.04,0.41,0.12,0.55,0.25
	c0.14,0.13,0.24,0.32,0.3,0.55c0.05,0.21,0.08,0.52,0.08,0.93v0.28c0,0.39-0.01,0.67-0.04,0.83c-0.04,0.23-0.12,0.41-0.25,0.55
	c-0.13,0.15-0.31,0.25-0.55,0.3c-0.21,0.05-0.52,0.08-0.93,0.08h-0.03c-0.37,0-0.63-0.02-0.78-0.07c-0.13-0.04-0.27-0.14-0.41-0.29
	V74.25z"/>
    <path d="M110.57,72.76h-0.84v-0.27c-0.1,0.12-0.27,0.2-0.49,0.23c-0.14,0.02-0.42,0.04-0.82,0.04h-0.04c-0.73,0-1.18-0.04-1.35-0.13
	c-0.18-0.09-0.3-0.22-0.35-0.37c-0.03-0.1-0.05-0.3-0.05-0.6V71.5c0-0.3,0.02-0.5,0.05-0.6c0.05-0.15,0.17-0.27,0.35-0.36
	c0.17-0.09,0.62-0.13,1.35-0.13h0.08c0.39,0,0.65,0.01,0.8,0.03c0.22,0.03,0.38,0.11,0.48,0.22c0-0.43-0.06-0.69-0.16-0.77
	c-0.09-0.07-0.37-0.11-0.84-0.11h-0.35c-0.35,0-0.56,0-0.66,0.01c-0.11,0-0.17,0.01-0.18,0.02c-0.02,0.01-0.04,0.06-0.06,0.14
	l-0.05,0.15l-0.82-0.16l0.11-0.35c0.09-0.3,0.26-0.49,0.5-0.57c0.17-0.05,0.56-0.08,1.16-0.08h0.35c0.52,0,0.87,0.01,1.04,0.03
	c0.26,0.03,0.44,0.1,0.55,0.21c0.11,0.11,0.18,0.3,0.22,0.57c0.02,0.2,0.04,0.57,0.04,1.1V72.76z M107.84,71.25
	c-0.12,0-0.21,0.02-0.27,0.05c-0.07,0.04-0.1,0.11-0.1,0.21v0.17c0,0.16,0.1,0.25,0.31,0.25h1.48c0.12,0,0.23-0.01,0.32-0.04
	c0.06-0.02,0.1-0.05,0.12-0.1c0.02-0.04,0.02-0.1,0.02-0.2c0-0.1-0.01-0.16-0.02-0.2c-0.02-0.04-0.06-0.08-0.11-0.1
	c-0.09-0.03-0.21-0.04-0.37-0.04H107.84z"/>
    <path d="M112.46,72.76h-0.84v-3.82h0.84v0.37c0.02-0.03,0.05-0.05,0.07-0.08c0.15-0.13,0.29-0.22,0.42-0.25
	c0.12-0.03,0.31-0.04,0.58-0.04c0.3,0,0.53,0.01,0.7,0.04c0.23,0.04,0.41,0.12,0.55,0.25c0.25,0.23,0.37,0.7,0.37,1.43l-0.84,0.03
	c0-0.5-0.03-0.77-0.1-0.83c-0.05-0.05-0.28-0.08-0.68-0.08h-0.15c-0.49,0-0.77,0.02-0.82,0.07c-0.06,0.06-0.1,0.33-0.1,0.8V72.76z"
    />
    <path d="M119.94,72.76h-0.84v-0.27c-0.1,0.12-0.27,0.2-0.49,0.23c-0.14,0.02-0.42,0.04-0.82,0.04h-0.04c-0.73,0-1.18-0.04-1.35-0.13
	c-0.18-0.09-0.3-0.22-0.35-0.37c-0.03-0.1-0.05-0.3-0.05-0.6V71.5c0-0.3,0.02-0.5,0.05-0.6c0.05-0.15,0.17-0.27,0.35-0.36
	c0.17-0.09,0.62-0.13,1.35-0.13h0.08c0.39,0,0.65,0.01,0.8,0.03c0.22,0.03,0.38,0.11,0.48,0.22c0-0.43-0.06-0.69-0.16-0.77
	c-0.09-0.07-0.37-0.11-0.84-0.11h-0.35c-0.35,0-0.56,0-0.66,0.01c-0.11,0-0.17,0.01-0.18,0.02c-0.02,0.01-0.04,0.06-0.06,0.14
	l-0.05,0.15l-0.82-0.16l0.11-0.35c0.09-0.3,0.26-0.49,0.5-0.57c0.17-0.05,0.56-0.08,1.16-0.08h0.35c0.52,0,0.87,0.01,1.04,0.03
	c0.26,0.03,0.44,0.1,0.55,0.21c0.11,0.11,0.18,0.3,0.22,0.57c0.02,0.2,0.04,0.57,0.04,1.1V72.76z M117.21,71.25
	c-0.12,0-0.21,0.02-0.27,0.05c-0.07,0.04-0.1,0.11-0.1,0.21v0.17c0,0.16,0.1,0.25,0.31,0.25h1.48c0.12,0,0.23-0.01,0.32-0.04
	c0.06-0.02,0.1-0.05,0.12-0.1c0.02-0.04,0.02-0.1,0.02-0.2c0-0.1-0.01-0.16-0.02-0.2c-0.02-0.04-0.06-0.08-0.11-0.1
	c-0.09-0.03-0.21-0.04-0.37-0.04H117.21z"/>
    <path d="M125.12,68.94c0.41,0,0.72,0.02,0.93,0.07c0.23,0.06,0.41,0.16,0.55,0.31c0.13,0.14,0.21,0.33,0.25,0.56
	c0.03,0.16,0.04,0.44,0.04,0.83v0.28c0,0.41-0.03,0.72-0.08,0.93c-0.05,0.23-0.15,0.41-0.3,0.55c-0.14,0.13-0.32,0.21-0.55,0.25
	c-0.17,0.03-0.45,0.04-0.84,0.04h-0.3c-0.39,0-0.67-0.01-0.83-0.04c-0.23-0.04-0.41-0.12-0.55-0.25c-0.15-0.13-0.25-0.32-0.31-0.55
	c-0.05-0.21-0.07-0.51-0.07-0.92v-0.3c0-0.39,0.01-0.67,0.04-0.83c0.04-0.23,0.12-0.41,0.25-0.55c0.13-0.15,0.31-0.25,0.55-0.3
	c0.21-0.05,0.51-0.07,0.92-0.07H125.12z M124.82,69.78c-0.51,0-0.79,0.03-0.84,0.1c-0.05,0.05-0.08,0.33-0.08,0.82V71
	c0,0.51,0.03,0.79,0.1,0.84c0.05,0.05,0.33,0.07,0.82,0.07h0.3c0.49,0,0.77-0.02,0.82-0.07c0.06-0.06,0.1-0.34,0.1-0.85v-0.28
	c0-0.5-0.02-0.78-0.07-0.83c-0.06-0.06-0.34-0.1-0.85-0.1H124.82z"/>
    <path d="M133.01,71.24l0.83,0.14l-0.07,0.41c-0.07,0.44-0.28,0.72-0.62,0.86c-0.2,0.08-0.56,0.12-1.1,0.12h-0.3
	c-0.39,0-0.67-0.01-0.84-0.04c-0.23-0.04-0.41-0.12-0.55-0.25c-0.14-0.13-0.24-0.32-0.3-0.55c-0.05-0.21-0.07-0.52-0.07-0.93v-0.28
	c0-0.39,0.01-0.67,0.04-0.83c0.04-0.23,0.12-0.41,0.25-0.56c0.13-0.15,0.31-0.25,0.55-0.31c0.21-0.05,0.52-0.07,0.93-0.07h0.3
	c0.54,0,0.92,0.05,1.15,0.15c0.32,0.14,0.51,0.41,0.58,0.8l0.07,0.41l-0.83,0.14l-0.06-0.42c-0.02-0.09-0.05-0.15-0.09-0.16
	c-0.11-0.05-0.38-0.08-0.81-0.08h-0.3c-0.51,0-0.79,0.03-0.85,0.1c-0.05,0.05-0.07,0.33-0.07,0.83v0.28c0,0.51,0.03,0.79,0.1,0.85
	c0.05,0.05,0.33,0.07,0.82,0.07h0.3c0.43,0,0.7-0.02,0.79-0.05c0.04-0.02,0.08-0.09,0.1-0.22L133.01,71.24z"/>
    <path d="M135.74,72.76h-0.84v-3.82h0.84v0.37c0.02-0.03,0.05-0.05,0.07-0.08c0.15-0.13,0.29-0.22,0.42-0.25
	c0.12-0.03,0.31-0.04,0.58-0.04c0.3,0,0.53,0.01,0.7,0.04c0.23,0.04,0.41,0.12,0.55,0.25c0.25,0.23,0.37,0.7,0.37,1.43l-0.84,0.03
	c0-0.5-0.03-0.77-0.1-0.83c-0.06-0.05-0.28-0.08-0.68-0.08h-0.15c-0.49,0-0.77,0.02-0.82,0.07c-0.06,0.06-0.1,0.33-0.1,0.8V72.76z"
    />
    <path d="M142.21,70.52c0-0.38-0.03-0.59-0.07-0.64c-0.06-0.06-0.34-0.1-0.85-0.1H141c-0.51,0-0.79,0.03-0.85,0.1
	c-0.04,0.05-0.07,0.26-0.07,0.64H142.21z M139.23,70.43c0.01-0.53,0.1-0.9,0.29-1.11c0.13-0.15,0.31-0.25,0.55-0.31
	c0.21-0.05,0.52-0.07,0.93-0.07h0.3c0.41,0,0.72,0.02,0.92,0.07c0.23,0.05,0.42,0.16,0.55,0.3c0.13,0.14,0.21,0.32,0.25,0.55
	c0.03,0.17,0.04,0.44,0.04,0.83v0.48h-2.98c0.01,0.39,0.04,0.61,0.09,0.66c0.05,0.05,0.33,0.07,0.82,0.07h0.34
	c0.4,0,0.65-0.01,0.76-0.04c0.05-0.01,0.08-0.05,0.1-0.1l0.1-0.22l0.75,0.18l-0.1,0.32c-0.11,0.33-0.34,0.54-0.67,0.63
	c-0.18,0.05-0.51,0.08-0.98,0.08H141c-0.39,0-0.67-0.01-0.84-0.04c-0.23-0.04-0.41-0.12-0.55-0.25c-0.23-0.21-0.36-0.61-0.37-1.2
	V70.43z"/>
    <path d="M147.93,70.13l-0.84,0.02v-0.2c0-0.07-0.01-0.11-0.05-0.12c-0.01-0.01-0.08-0.02-0.19-0.03c-0.14-0.01-0.37-0.01-0.69-0.01
	h-0.3c-0.43,0-0.69,0.01-0.79,0.03c-0.05,0.01-0.08,0.03-0.1,0.05c-0.02,0.03-0.03,0.09-0.03,0.18v0.19c0,0.1,0.01,0.16,0.02,0.18
	c0.02,0.03,0.06,0.04,0.12,0.05c0.13,0.01,0.39,0.02,0.78,0.02h0.3c0.7,0,1.16,0.06,1.37,0.17c0.17,0.1,0.28,0.23,0.34,0.39
	c0.04,0.11,0.05,0.28,0.05,0.53v0.1c0,0.25-0.03,0.44-0.08,0.57c-0.07,0.17-0.21,0.31-0.4,0.39c-0.19,0.09-0.62,0.13-1.28,0.13h-0.3
	c-0.66,0-1.09-0.04-1.28-0.13c-0.2-0.09-0.33-0.22-0.4-0.39c-0.06-0.13-0.09-0.32-0.09-0.57v-0.07l0.84-0.03v0.1
	c0,0.11,0,0.16,0.01,0.18c0.01,0.03,0.06,0.04,0.13,0.05c0.11,0.01,0.37,0.02,0.78,0.02h0.3c0.38,0,0.63-0.01,0.74-0.02
	c0.08-0.01,0.12-0.02,0.14-0.03c0.02-0.01,0.04-0.05,0.04-0.1V71.4c0-0.06,0-0.11-0.01-0.14c-0.02-0.03-0.08-0.05-0.19-0.06
	c-0.14-0.01-0.38-0.02-0.72-0.02h-0.3c-0.66,0-1.09-0.04-1.28-0.13c-0.2-0.09-0.33-0.22-0.4-0.39c-0.06-0.13-0.09-0.32-0.09-0.57
	v-0.06c0-0.24,0.02-0.42,0.06-0.53c0.06-0.16,0.17-0.29,0.34-0.39c0.21-0.11,0.66-0.17,1.36-0.17h0.3c0.7,0,1.16,0.06,1.37,0.18
	c0.17,0.1,0.28,0.23,0.34,0.39c0.04,0.11,0.05,0.29,0.05,0.53V70.13z"/>
    <path d="M151.99,71.24l0.83,0.14l-0.07,0.41c-0.07,0.44-0.28,0.72-0.62,0.86c-0.2,0.08-0.56,0.12-1.1,0.12h-0.3
	c-0.39,0-0.67-0.01-0.84-0.04c-0.23-0.04-0.41-0.12-0.55-0.25c-0.14-0.13-0.24-0.32-0.3-0.55c-0.05-0.21-0.07-0.52-0.07-0.93v-0.28
	c0-0.39,0.01-0.67,0.04-0.83c0.04-0.23,0.12-0.41,0.25-0.56c0.13-0.15,0.31-0.25,0.55-0.31c0.21-0.05,0.52-0.07,0.93-0.07h0.3
	c0.54,0,0.92,0.05,1.15,0.15c0.32,0.14,0.51,0.41,0.58,0.8l0.07,0.41l-0.83,0.14l-0.06-0.42c-0.02-0.09-0.05-0.15-0.09-0.16
	c-0.11-0.05-0.38-0.08-0.81-0.08h-0.3c-0.51,0-0.79,0.03-0.85,0.1c-0.05,0.05-0.07,0.33-0.07,0.83v0.28c0,0.51,0.03,0.79,0.1,0.85
	c0.05,0.05,0.33,0.07,0.82,0.07h0.3c0.43,0,0.7-0.02,0.79-0.05c0.04-0.02,0.08-0.09,0.1-0.22L151.99,71.24z"/>
    <path d="M154.05,67.45h0.84v0.84h-0.84V67.45z M154.05,68.94h0.84v3.82h-0.84V68.94z"/>
    <path d="M159.27,69.51c0.03-0.06,0.06-0.12,0.11-0.17c0.22-0.27,0.5-0.4,0.86-0.4c0.38,0,0.65,0.02,0.84,0.06
	c0.22,0.05,0.39,0.15,0.52,0.29c0.2,0.22,0.29,0.69,0.29,1.4v2.06h-0.84V70.7c0-0.51-0.03-0.79-0.08-0.84
	c-0.04-0.05-0.29-0.08-0.73-0.08c-0.45,0-0.7,0.03-0.74,0.09c-0.05,0.05-0.07,0.33-0.07,0.82v2.07h-0.84V70.7
	c0-0.51-0.03-0.79-0.08-0.84c-0.04-0.05-0.29-0.08-0.73-0.08c-0.45,0-0.7,0.03-0.74,0.09c-0.05,0.05-0.07,0.31-0.07,0.76v2.14h-0.84
	v-3.82h0.84v0.34c0.22-0.23,0.49-0.34,0.81-0.34c0.37,0,0.65,0.02,0.84,0.06c0.22,0.05,0.39,0.15,0.52,0.29
	C159.19,69.36,159.23,69.43,159.27,69.51"/>
    <path d="M165.92,70.52c0-0.38-0.03-0.59-0.07-0.64c-0.06-0.06-0.34-0.1-0.85-0.1h-0.3c-0.51,0-0.79,0.03-0.85,0.1
	c-0.04,0.05-0.07,0.26-0.07,0.64H165.92z M162.94,70.43c0.01-0.53,0.1-0.9,0.29-1.11c0.13-0.15,0.31-0.25,0.55-0.31
	c0.21-0.05,0.52-0.07,0.93-0.07h0.3c0.41,0,0.72,0.02,0.92,0.07c0.23,0.05,0.42,0.16,0.55,0.3c0.13,0.14,0.21,0.32,0.25,0.55
	c0.03,0.17,0.04,0.44,0.04,0.83v0.48h-2.98c0.01,0.39,0.04,0.61,0.09,0.66c0.05,0.05,0.33,0.07,0.82,0.07h0.34
	c0.4,0,0.65-0.01,0.76-0.04c0.05-0.01,0.08-0.05,0.1-0.1l0.1-0.22l0.75,0.18l-0.1,0.32c-0.11,0.33-0.34,0.54-0.67,0.63
	c-0.18,0.05-0.51,0.08-0.98,0.08h-0.3c-0.39,0-0.67-0.01-0.84-0.04c-0.23-0.04-0.41-0.12-0.55-0.25c-0.23-0.21-0.36-0.61-0.37-1.2
	V70.43z"/>
    <path d="M167.81,68.94h0.84v0.36c0.23-0.24,0.62-0.36,1.19-0.36h0.03c0.41,0,0.72,0.02,0.92,0.07c0.23,0.05,0.42,0.16,0.55,0.3
	c0.13,0.14,0.21,0.32,0.25,0.55c0.03,0.17,0.04,0.44,0.04,0.83v2.06h-0.84V70.7c0-0.49-0.02-0.77-0.07-0.82
	c-0.06-0.06-0.34-0.1-0.85-0.1h-0.3c-0.51,0-0.79,0.03-0.85,0.1c-0.05,0.05-0.07,0.3-0.07,0.74v2.14h-0.84V68.94z"/>
    <path d="M175.47,71.11h0.84v0.56c0,0.16-0.01,0.28-0.03,0.39c-0.03,0.15-0.08,0.28-0.17,0.38c-0.09,0.11-0.21,0.2-0.37,0.25
	c-0.11,0.03-0.24,0.06-0.4,0.07c-0.06,0-0.15,0-0.26,0.01c-0.14,0-0.24,0-0.3,0l-0.27,0c-0.09,0-0.17,0-0.23,0
	c-0.16-0.01-0.29-0.02-0.39-0.05c-0.15-0.04-0.28-0.1-0.38-0.19c-0.11-0.11-0.19-0.24-0.23-0.42c-0.03-0.11-0.04-0.26-0.04-0.43
	v-1.98h-0.57v-0.75h0.57v-1.49h0.84v1.49h2.05v0.75h-2.05v1.94c0,0.08,0.02,0.14,0.06,0.2c0.05,0.05,0.11,0.09,0.18,0.09
	c0.06,0,0.13,0,0.2,0h0.55c0.08,0,0.15,0,0.22-0.01c0.09-0.01,0.14-0.02,0.16-0.04c0.01-0.02,0.02-0.09,0.02-0.21V71.11z"/>
    <path d="M179.25,68.94c0.41,0,0.72,0.02,0.93,0.07c0.23,0.06,0.41,0.16,0.55,0.31c0.13,0.14,0.21,0.33,0.25,0.56
	c0.03,0.16,0.04,0.44,0.04,0.83v0.28c0,0.41-0.03,0.72-0.08,0.93c-0.05,0.23-0.15,0.41-0.3,0.55c-0.14,0.13-0.32,0.21-0.55,0.25
	c-0.17,0.03-0.45,0.04-0.84,0.04h-0.3c-0.39,0-0.67-0.01-0.83-0.04c-0.23-0.04-0.41-0.12-0.55-0.25c-0.15-0.13-0.25-0.32-0.31-0.55
	c-0.05-0.21-0.07-0.51-0.07-0.92v-0.3c0-0.39,0.01-0.67,0.04-0.83c0.04-0.23,0.12-0.41,0.25-0.55c0.13-0.15,0.31-0.25,0.55-0.3
	c0.21-0.05,0.51-0.07,0.92-0.07H179.25z M178.96,69.78c-0.51,0-0.79,0.03-0.84,0.1c-0.05,0.05-0.08,0.33-0.08,0.82V71
	c0,0.51,0.03,0.79,0.1,0.84c0.05,0.05,0.33,0.07,0.82,0.07h0.3c0.49,0,0.77-0.02,0.82-0.07c0.06-0.06,0.1-0.34,0.1-0.85v-0.28
	c0-0.5-0.02-0.78-0.07-0.83c-0.06-0.06-0.34-0.1-0.85-0.1H178.96z"/>
    <path d="M187.11,70.62c0-0.44-0.02-0.68-0.07-0.74c-0.06-0.06-0.34-0.1-0.85-0.1h-0.3c-0.51,0-0.79,0.03-0.85,0.1
	c-0.05,0.05-0.07,0.33-0.07,0.83v0.28c0,0.51,0.03,0.79,0.1,0.85c0.05,0.05,0.33,0.07,0.82,0.07h0.3c0.49,0,0.77-0.02,0.82-0.07
	c0.06-0.06,0.1-0.32,0.1-0.8V70.62z M187.11,67.45h0.84v5.31h-0.84V72.4c-0.02,0.03-0.04,0.05-0.07,0.08
	c-0.15,0.13-0.29,0.22-0.42,0.25c-0.12,0.03-0.35,0.04-0.7,0.04h-0.03c-0.39,0-0.67-0.01-0.84-0.04c-0.23-0.04-0.41-0.12-0.55-0.25
	c-0.14-0.13-0.24-0.32-0.3-0.55c-0.05-0.21-0.07-0.52-0.07-0.93v-0.28c0-0.39,0.01-0.67,0.04-0.83c0.04-0.23,0.12-0.41,0.25-0.56
	c0.13-0.15,0.31-0.25,0.55-0.31c0.21-0.05,0.52-0.07,0.93-0.07h0.03c0.37,0,0.63,0.02,0.78,0.07c0.13,0.04,0.27,0.14,0.4,0.29V67.45
	z"/>
    <path d="M191.98,70.52c0-0.38-0.03-0.59-0.07-0.64c-0.06-0.06-0.34-0.1-0.85-0.1h-0.3c-0.51,0-0.79,0.03-0.85,0.1
	c-0.04,0.05-0.07,0.26-0.07,0.64H191.98z M189,70.43c0.01-0.53,0.1-0.9,0.29-1.11c0.13-0.15,0.31-0.25,0.55-0.31
	c0.21-0.05,0.52-0.07,0.93-0.07h0.3c0.41,0,0.72,0.02,0.92,0.07c0.23,0.05,0.42,0.16,0.55,0.3c0.13,0.14,0.21,0.32,0.25,0.55
	c0.03,0.17,0.04,0.44,0.04,0.83v0.48h-2.98c0.01,0.39,0.04,0.61,0.09,0.66c0.05,0.05,0.33,0.07,0.82,0.07h0.34
	c0.4,0,0.65-0.01,0.76-0.04c0.05-0.01,0.08-0.05,0.1-0.1l0.1-0.22l0.75,0.18l-0.1,0.32c-0.11,0.33-0.34,0.54-0.67,0.63
	c-0.18,0.05-0.51,0.08-0.98,0.08h-0.3c-0.39,0-0.67-0.01-0.84-0.04c-0.23-0.04-0.41-0.12-0.55-0.25c-0.23-0.21-0.36-0.61-0.37-1.2
	V70.43z"/>
    <path d="M199.76,70.13l-0.84,0.02v-0.2c0-0.07-0.01-0.11-0.05-0.12c-0.01-0.01-0.08-0.02-0.19-0.03c-0.14-0.01-0.37-0.01-0.69-0.01
	h-0.3c-0.43,0-0.69,0.01-0.79,0.03c-0.05,0.01-0.08,0.03-0.1,0.05c-0.02,0.03-0.03,0.09-0.03,0.18v0.19c0,0.1,0.01,0.16,0.02,0.18
	c0.02,0.03,0.06,0.04,0.12,0.05c0.13,0.01,0.39,0.02,0.78,0.02h0.3c0.7,0,1.16,0.06,1.37,0.17c0.17,0.1,0.28,0.23,0.34,0.39
	c0.04,0.11,0.05,0.28,0.05,0.53v0.1c0,0.25-0.03,0.44-0.08,0.57c-0.07,0.17-0.21,0.31-0.4,0.39c-0.19,0.09-0.62,0.13-1.28,0.13h-0.3
	c-0.66,0-1.09-0.04-1.28-0.13c-0.2-0.09-0.33-0.22-0.4-0.39c-0.06-0.13-0.09-0.32-0.09-0.57v-0.07l0.84-0.03v0.1
	c0,0.11,0,0.16,0.01,0.18c0.01,0.03,0.06,0.04,0.13,0.05c0.11,0.01,0.37,0.02,0.78,0.02h0.3c0.38,0,0.63-0.01,0.74-0.02
	c0.08-0.01,0.12-0.02,0.14-0.03c0.02-0.01,0.04-0.05,0.04-0.1V71.4c0-0.06,0-0.11-0.01-0.14c-0.02-0.03-0.08-0.05-0.19-0.06
	c-0.14-0.01-0.38-0.02-0.72-0.02h-0.3c-0.66,0-1.09-0.04-1.28-0.13c-0.2-0.09-0.33-0.22-0.4-0.39c-0.06-0.13-0.09-0.32-0.09-0.57
	v-0.06c0-0.24,0.02-0.42,0.06-0.53c0.05-0.16,0.17-0.29,0.34-0.39c0.21-0.11,0.66-0.17,1.36-0.17h0.3c0.7,0,1.16,0.06,1.37,0.18
	c0.17,0.1,0.28,0.23,0.34,0.39c0.04,0.11,0.05,0.29,0.05,0.53V70.13z"/>
    <path d="M204.63,72.76h-0.84V72.4c-0.23,0.24-0.62,0.37-1.19,0.37h-0.03c-0.41,0-0.72-0.03-0.92-0.08c-0.23-0.05-0.42-0.16-0.55-0.3
	c-0.13-0.14-0.21-0.32-0.25-0.55c-0.03-0.16-0.04-0.44-0.04-0.83v-2.06h0.84V71c0,0.49,0.03,0.77,0.08,0.82
	c0.06,0.07,0.34,0.1,0.84,0.1h0.3c0.51,0,0.79-0.03,0.85-0.1c0.05-0.05,0.07-0.3,0.07-0.74v-2.14h0.84V72.76z"/>
    <path d="M209.67,72.76h-0.84v-0.27c-0.1,0.12-0.27,0.2-0.49,0.23c-0.14,0.02-0.42,0.04-0.82,0.04h-0.04c-0.73,0-1.18-0.04-1.35-0.13
	c-0.18-0.09-0.3-0.22-0.35-0.37c-0.03-0.1-0.05-0.3-0.05-0.6V71.5c0-0.3,0.02-0.5,0.05-0.6c0.05-0.15,0.17-0.27,0.35-0.36
	c0.17-0.09,0.62-0.13,1.35-0.13h0.08c0.39,0,0.65,0.01,0.8,0.03c0.22,0.03,0.38,0.11,0.48,0.22c0-0.43-0.06-0.69-0.16-0.77
	c-0.09-0.07-0.37-0.11-0.84-0.11h-0.35c-0.35,0-0.56,0-0.66,0.01c-0.11,0-0.17,0.01-0.18,0.02c-0.02,0.01-0.04,0.06-0.06,0.14
	l-0.05,0.15l-0.82-0.16l0.11-0.35c0.09-0.3,0.26-0.49,0.5-0.57c0.17-0.05,0.56-0.08,1.16-0.08h0.35c0.52,0,0.87,0.01,1.04,0.03
	c0.26,0.03,0.44,0.1,0.55,0.21c0.11,0.11,0.18,0.3,0.22,0.57c0.02,0.2,0.04,0.57,0.04,1.1V72.76z M206.94,71.25
	c-0.12,0-0.21,0.02-0.27,0.05c-0.07,0.04-0.1,0.11-0.1,0.21v0.17c0,0.16,0.1,0.25,0.31,0.25h1.48c0.12,0,0.23-0.01,0.32-0.04
	c0.06-0.02,0.1-0.05,0.12-0.1c0.02-0.04,0.02-0.1,0.02-0.2c0-0.1-0.01-0.16-0.02-0.2c-0.02-0.04-0.05-0.08-0.11-0.1
	c-0.09-0.03-0.21-0.04-0.37-0.04H206.94z"/>
    <path d="M215.76,70.52c0-0.38-0.03-0.59-0.07-0.64c-0.06-0.06-0.34-0.1-0.85-0.1h-0.3c-0.51,0-0.79,0.03-0.85,0.1
	c-0.04,0.05-0.07,0.26-0.07,0.64H215.76z M212.78,70.43c0.01-0.53,0.1-0.9,0.29-1.11c0.13-0.15,0.31-0.25,0.55-0.31
	c0.21-0.05,0.52-0.07,0.93-0.07h0.3c0.41,0,0.72,0.02,0.92,0.07c0.23,0.05,0.42,0.16,0.55,0.3c0.13,0.14,0.21,0.32,0.25,0.55
	c0.03,0.17,0.04,0.44,0.04,0.83v0.48h-2.98c0.01,0.39,0.04,0.61,0.09,0.66c0.05,0.05,0.33,0.07,0.82,0.07h0.34
	c0.4,0,0.65-0.01,0.76-0.04c0.05-0.01,0.08-0.05,0.1-0.1l0.1-0.22l0.75,0.18l-0.1,0.32c-0.11,0.33-0.34,0.54-0.67,0.63
	c-0.18,0.05-0.51,0.08-0.98,0.08h-0.3c-0.39,0-0.67-0.01-0.84-0.04c-0.23-0.04-0.41-0.12-0.55-0.25c-0.23-0.21-0.36-0.61-0.37-1.2
	V70.43z"/>
    <path d="M220.8,69.51c0.03-0.06,0.07-0.12,0.11-0.17c0.22-0.27,0.5-0.4,0.86-0.4c0.38,0,0.65,0.02,0.84,0.06
	c0.22,0.05,0.39,0.15,0.52,0.29c0.2,0.22,0.29,0.69,0.29,1.4v2.06h-0.84V70.7c0-0.51-0.03-0.79-0.08-0.84
	c-0.04-0.05-0.29-0.08-0.73-0.08c-0.45,0-0.7,0.03-0.74,0.09c-0.05,0.05-0.07,0.33-0.07,0.82v2.07h-0.84V70.7
	c0-0.51-0.03-0.79-0.08-0.84c-0.04-0.05-0.29-0.08-0.73-0.08c-0.45,0-0.7,0.03-0.74,0.09c-0.05,0.05-0.07,0.31-0.07,0.76v2.14h-0.84
	v-3.82h0.84v0.34c0.22-0.23,0.49-0.34,0.81-0.34c0.37,0,0.65,0.02,0.84,0.06c0.22,0.05,0.39,0.15,0.52,0.29
	C220.72,69.36,220.77,69.43,220.8,69.51"/>
    <path d="M225.31,71.09c0,0.44,0.02,0.68,0.07,0.73c0.06,0.07,0.34,0.1,0.85,0.1h0.3c0.51,0,0.79-0.03,0.85-0.1
	c0.05-0.05,0.07-0.33,0.07-0.83v-0.28c0-0.51-0.03-0.79-0.1-0.85c-0.05-0.05-0.33-0.08-0.82-0.08h-0.3c-0.49,0-0.77,0.02-0.82,0.07
	c-0.07,0.06-0.1,0.33-0.1,0.8V71.09z M225.31,74.25h-0.84v-5.31h0.84v0.37c0.02-0.03,0.05-0.05,0.07-0.08
	c0.15-0.13,0.29-0.22,0.42-0.25c0.12-0.03,0.35-0.04,0.7-0.04h0.03c0.39,0,0.67,0.01,0.84,0.04c0.23,0.04,0.41,0.12,0.55,0.25
	c0.14,0.13,0.24,0.32,0.3,0.55c0.05,0.21,0.08,0.52,0.08,0.93v0.28c0,0.39-0.01,0.67-0.04,0.83c-0.04,0.23-0.12,0.41-0.25,0.55
	c-0.13,0.15-0.31,0.25-0.55,0.3c-0.21,0.05-0.52,0.08-0.93,0.08h-0.03c-0.37,0-0.63-0.02-0.78-0.07c-0.13-0.04-0.27-0.14-0.41-0.29
	V74.25z"/>
    <path d="M230.18,72.76h-0.84v-3.82h0.84v0.37c0.02-0.03,0.05-0.05,0.07-0.08c0.15-0.13,0.29-0.22,0.42-0.25
	c0.12-0.03,0.31-0.04,0.58-0.04c0.3,0,0.53,0.01,0.7,0.04c0.23,0.04,0.41,0.12,0.55,0.25c0.25,0.23,0.37,0.7,0.37,1.43l-0.84,0.03
	c0-0.5-0.03-0.77-0.1-0.83c-0.06-0.05-0.28-0.08-0.68-0.08h-0.15c-0.49,0-0.77,0.02-0.82,0.07c-0.06,0.06-0.1,0.33-0.1,0.8V72.76z"
    />
    <path d="M236.66,70.52c0-0.38-0.03-0.59-0.07-0.64c-0.06-0.06-0.34-0.1-0.85-0.1h-0.3c-0.51,0-0.79,0.03-0.85,0.1
	c-0.04,0.05-0.07,0.26-0.07,0.64H236.66z M233.68,70.43c0.01-0.53,0.1-0.9,0.29-1.11c0.13-0.15,0.31-0.25,0.55-0.31
	c0.21-0.05,0.52-0.07,0.93-0.07h0.3c0.41,0,0.72,0.02,0.92,0.07c0.23,0.05,0.42,0.16,0.55,0.3c0.13,0.14,0.21,0.32,0.25,0.55
	c0.03,0.17,0.04,0.44,0.04,0.83v0.48h-2.98c0.01,0.39,0.04,0.61,0.09,0.66c0.05,0.05,0.33,0.07,0.82,0.07h0.34
	c0.4,0,0.65-0.01,0.76-0.04c0.05-0.01,0.08-0.05,0.1-0.1l0.1-0.22l0.75,0.18l-0.1,0.32c-0.11,0.33-0.34,0.54-0.67,0.63
	c-0.18,0.05-0.51,0.08-0.98,0.08h-0.3c-0.39,0-0.67-0.01-0.84-0.04c-0.23-0.04-0.41-0.12-0.55-0.25c-0.23-0.21-0.36-0.61-0.37-1.2
	V70.43z"/>
    <path d="M242.37,70.13l-0.84,0.02v-0.2c0-0.07-0.01-0.11-0.05-0.12c-0.01-0.01-0.08-0.02-0.19-0.03c-0.14-0.01-0.37-0.01-0.69-0.01
	h-0.3c-0.43,0-0.69,0.01-0.79,0.03c-0.05,0.01-0.08,0.03-0.1,0.05c-0.02,0.03-0.03,0.09-0.03,0.18v0.19c0,0.1,0.01,0.16,0.02,0.18
	c0.02,0.03,0.06,0.04,0.12,0.05c0.13,0.01,0.39,0.02,0.78,0.02h0.3c0.7,0,1.16,0.06,1.37,0.17c0.17,0.1,0.28,0.23,0.34,0.39
	c0.04,0.11,0.05,0.28,0.05,0.53v0.1c0,0.25-0.03,0.44-0.08,0.57c-0.07,0.17-0.21,0.31-0.4,0.39c-0.19,0.09-0.62,0.13-1.28,0.13h-0.3
	c-0.66,0-1.09-0.04-1.27-0.13c-0.2-0.09-0.33-0.22-0.4-0.39c-0.06-0.13-0.09-0.32-0.09-0.57v-0.07l0.84-0.03v0.1
	c0,0.11,0,0.16,0.01,0.18c0.01,0.03,0.06,0.04,0.13,0.05c0.11,0.01,0.37,0.02,0.78,0.02h0.3c0.38,0,0.63-0.01,0.74-0.02
	c0.08-0.01,0.12-0.02,0.14-0.03c0.02-0.01,0.04-0.05,0.04-0.1V71.4c0-0.06,0-0.11-0.01-0.14c-0.02-0.03-0.08-0.05-0.19-0.06
	c-0.14-0.01-0.38-0.02-0.72-0.02h-0.3c-0.66,0-1.09-0.04-1.27-0.13c-0.2-0.09-0.33-0.22-0.4-0.39c-0.06-0.13-0.09-0.32-0.09-0.57
	v-0.06c0-0.24,0.02-0.42,0.06-0.53c0.05-0.16,0.17-0.29,0.34-0.39c0.21-0.11,0.66-0.17,1.36-0.17h0.3c0.7,0,1.16,0.06,1.37,0.18
	c0.17,0.1,0.28,0.23,0.34,0.39c0.04,0.11,0.05,0.29,0.05,0.53V70.13z"/>
    <path d="M247.4,72.76h-0.84v-0.27c-0.1,0.12-0.27,0.2-0.49,0.23c-0.14,0.02-0.42,0.04-0.82,0.04h-0.04c-0.73,0-1.18-0.04-1.35-0.13
	c-0.18-0.09-0.3-0.22-0.35-0.37c-0.03-0.1-0.05-0.3-0.05-0.6V71.5c0-0.3,0.02-0.5,0.05-0.6c0.05-0.15,0.17-0.27,0.35-0.36
	c0.17-0.09,0.62-0.13,1.35-0.13h0.08c0.39,0,0.65,0.01,0.8,0.03c0.22,0.03,0.38,0.11,0.48,0.22c0-0.43-0.06-0.69-0.16-0.77
	c-0.09-0.07-0.37-0.11-0.84-0.11h-0.35c-0.35,0-0.56,0-0.66,0.01c-0.11,0-0.17,0.01-0.18,0.02c-0.02,0.01-0.04,0.06-0.06,0.14
	l-0.05,0.15l-0.82-0.16l0.11-0.35c0.09-0.3,0.26-0.49,0.5-0.57c0.17-0.05,0.56-0.08,1.16-0.08h0.35c0.52,0,0.87,0.01,1.04,0.03
	c0.26,0.03,0.44,0.1,0.55,0.21c0.11,0.11,0.18,0.3,0.22,0.57c0.02,0.2,0.04,0.57,0.04,1.1V72.76z M244.68,71.25
	c-0.12,0-0.21,0.02-0.27,0.05c-0.07,0.04-0.1,0.11-0.1,0.21v0.17c0,0.16,0.1,0.25,0.31,0.25h1.48c0.12,0,0.23-0.01,0.32-0.04
	c0.06-0.02,0.1-0.05,0.12-0.1c0.02-0.04,0.02-0.1,0.02-0.2c0-0.1-0.01-0.16-0.02-0.2c-0.02-0.04-0.05-0.08-0.11-0.1
	c-0.09-0.03-0.21-0.04-0.37-0.04H244.68z"/>
    <rect x="9.35" y="23.7" class="st1" width="37.33" height="0.43"/>
    <polygon class="st1" points="72.22,31.34 62.42,31.34 58.93,31.34 58.93,30.91 62.42,30.91 72.22,30.91 "/>
    <rect x="69.45" y="9.73" class="st1" width="0.43" height="23.51"/>
    <rect x="87.08" y="9.73" class="st1" width="0.43" height="4.82"/>
    <polygon class="st2"
             points="11.03,39.92 11.03,55.89 87.93,55.89 87.93,13.86 70.01,35.02 51.8,20.45 29.8,38.94 19.44,32.35 "/>
    <rect x="55.51" y="23.7" class="st1" width="23.56" height="0.43"/>
    <polygon class="st3" points="66.54,32.88 69.67,34.65 72.38,31.62 72.38,54.11 66.54,54.11 "/>
    <polygon class="st3" points="26.61,35.79 29.6,39.34 32.44,38.09 32.44,54.11 26.61,54.11 "/>
    <polygon class="st3" points="14.53,35.79 20.37,31.62 20.37,54.11 14.53,54.11 "/>
    <polygon class="st3" points="38.68,32.21 44.52,26.28 44.52,54.11 38.68,54.11 "/>
    <polygon class="st3" points="54.4,24.29 60.23,28.91 60.23,54.11 54.4,54.11 "/>
    <polygon class="st3" points="78.69,25.99 84.52,19.08 84.52,54.11 78.69,54.11 "/>
    <path class="st1" d="M89.22,55.76V10H9.84v45.76H89.22z M90.08,9.59v46.59v0.22v0.2h-0.21h-0.22H9.4H9.18H8.97v-0.2v-0.22V9.59V9.37
	v-0.2h0.21H9.4h80.25h0.22h0.21v0.2V9.59z"/>
    <rect x="9.05" y="16.49" class="st1" width="76.75" height="0.43"/>
    <rect x="16.57" y="9.73" class="st1" width="0.43" height="24.69"/>
    <polygon class="st1" points="38.12,31.34 17.06,31.34 9.55,31.34 9.55,30.91 17.06,30.91 38.12,30.91 "/>
    <rect x="25.38" y="9.73" class="st1" width="0.43" height="27.73"/>
    <rect x="34.2" y="9.73" class="st1" width="0.43" height="24.69"/>
    <rect x="43.01" y="9.73" class="st1" width="0.43" height="17.11"/>
    <rect x="51.82" y="9.73" class="st1" width="0.43" height="11.85"/>
    <rect x="78.26" y="9.73" class="st1" width="0.43" height="14.58"/>
    <rect x="60.63" y="9.73" class="st1" width="0.43" height="20.32"/>
    <polygon class="st4" points="6.59,40.26 18.5,31.23 19.55,30.43 20.53,31.32 29.58,37.62 50.67,19.53 51.68,18.56 52.77,19.45
	69.12,32.9 90.48,9.76 92.88,11.84 70.51,36.14 69.5,37.31 68.31,36.33 51.84,22.79 30.7,40.94 29.63,41.96 28.54,40.96 
	19.37,34.55 8.5,42.79 "/>
</svg>
